<svg preserveAspectRatio="xMidYMid meet" overflow="visible" style="display:block" viewBox="0 0 1345.87 44.8" fill="none" xmlns="http://www.w3.org/2000/svg">
<g id="Frame 21">
<g id="Vector">
<path d="M185.399 4.72273C185.49 4.72007 185.582 4.71741 185.673 4.71474C186.373 4.74582 187.073 4.74759 187.773 4.71474C188.616 4.85592 189.415 5.10897 190.2 5.40464C190.728 5.60352 191.249 5.81662 191.802 5.9649C192.667 6.19664 193.454 6.07588 193.965 5.42772C194.378 4.90475 194.882 4.8062 195.544 4.82573C196.384 4.85059 196.386 4.82218 196.386 5.54226C196.386 8.80172 196.386 12.0603 196.386 15.3197C196.386 15.4591 196.381 15.5985 196.386 15.7371C196.394 15.9244 196.33 16.0389 196.077 16.0318C195.522 16.0167 194.966 16.0025 194.412 16.0052C194.084 16.0061 194.063 15.8107 194.008 15.6136C193.693 14.4745 193.346 13.3433 192.894 12.2379C192.379 10.9788 191.738 9.77218 190.853 8.66942C190.296 7.97331 189.626 7.37842 188.769 6.95046C187.571 6.35379 186.307 6.2872 185.025 6.68054C183.348 7.19552 182.406 8.85588 182.838 10.4434C183.008 11.0685 183.329 11.6376 183.702 12.189C184.79 13.8006 186.235 15.1688 187.706 16.5193C188.575 17.3175 189.479 18.0873 190.42 18.8243C191.979 20.0451 193.423 21.3592 194.78 22.7443C197.278 25.2952 198.516 28.2439 198.43 31.5753C198.383 33.4301 197.876 35.1899 196.652 36.7597C194.545 39.4633 191.277 40.5439 187.601 39.751C186.678 39.5521 185.81 39.2307 184.934 38.9244C184.506 38.7752 184.074 38.6376 183.644 38.4929C182.94 38.2567 182.321 38.4032 181.788 38.8258C181.449 39.0949 181.139 39.3923 180.843 39.6969C180.606 39.9419 180.344 40.0822 179.959 40.0724C179.499 40.06 178.927 40.2456 178.607 40.0236C178.266 39.7874 178.491 39.2778 178.49 38.8906C178.478 35.5717 178.483 32.2528 178.483 28.9347C178.483 28.7953 178.49 28.6559 178.482 28.5174C178.47 28.3283 178.53 28.2173 178.786 28.2208C179.41 28.2297 180.036 28.2377 180.66 28.2208C180.965 28.2128 180.976 28.3984 181.032 28.5609C181.289 29.3014 181.518 30.0508 181.801 30.7842C182.326 32.1435 182.975 33.4567 183.863 34.6749C184.556 35.6259 185.374 36.4818 186.421 37.1619C187.618 37.9397 188.965 38.2656 190.459 38.1315C192.396 37.9575 193.842 36.6532 194.022 34.9156C194.155 33.6299 193.814 32.433 193.098 31.3063C192.54 30.429 191.83 29.6459 191.069 28.8965C189.547 27.3986 187.981 25.9381 186.288 24.5787C184.664 23.2753 183.124 21.899 181.688 20.442C180.009 18.739 178.858 16.7945 178.545 14.5704C178.089 11.3189 178.922 8.4066 181.947 6.17622C182.949 5.43749 184.122 4.98644 185.397 4.72007L185.399 4.72273Z" fill="var(--fill-0, #F3EDE3)"/>
<path d="M245.698 19.5923C246.462 18.8713 247.093 18.2365 247.841 17.6993C248.8 17.0103 249.862 16.5095 251.113 16.3577C251.988 16.2511 252.861 16.236 253.733 16.4056C255.22 16.6933 256.253 17.4356 256.837 18.6431C257.367 19.7415 257.534 20.9037 257.614 22.0748C257.756 24.1392 257.748 26.2062 257.741 28.2723C257.734 30.7362 257.738 33.201 257.739 35.6649C257.739 35.8834 257.739 36.1027 257.753 36.3202C257.801 37.0367 258.148 37.589 258.979 37.8198C259.441 37.9486 259.611 38.1572 259.59 38.5879C259.548 39.4767 259.58 39.4775 258.517 39.4775C256.435 39.4775 254.353 39.4775 252.27 39.4775C251.461 39.4775 251.549 39.5122 251.549 38.88C251.551 33.8128 251.555 28.7456 251.555 23.6775C251.555 22.9032 251.557 22.1299 251.387 21.3619C251.015 19.6828 249.068 19.0684 247.503 20.1481C246.964 20.5192 246.623 21.0103 246.37 21.5519C246.031 22.2782 245.882 23.0409 245.824 23.816C245.789 24.2919 245.782 24.7696 245.782 25.2464C245.778 28.6248 245.779 32.0033 245.78 35.3808C245.78 35.7777 245.793 36.1719 245.879 36.567C246.038 37.2978 246.547 37.7124 247.367 37.8918C247.915 38.0107 247.917 38.0223 247.916 38.5195C247.916 38.8143 248.023 39.1925 247.854 39.3843C247.638 39.6294 247.164 39.4713 246.806 39.4722C243.914 39.482 241.021 39.4775 238.13 39.4784C237.576 39.4784 237.595 39.5042 237.601 39.0283C237.602 38.9288 237.601 38.8294 237.602 38.7299C237.604 38.0551 237.602 38.048 238.311 37.8305C239.103 37.5881 239.481 37.0829 239.553 36.3948C239.593 36.0192 239.592 35.6401 239.592 35.2627C239.594 30.3944 239.592 25.5252 239.591 20.6569C239.591 20.4384 239.589 20.2191 239.574 20.0016C239.515 19.1128 239.151 18.7115 238.17 18.446C237.609 18.2942 237.588 18.2933 237.61 17.8209C237.629 17.4534 237.398 16.9872 237.722 16.743C238.001 16.5326 238.52 16.6764 238.933 16.6578C240.966 16.5628 243 16.4802 245.031 16.3737C245.557 16.3461 245.553 16.3177 245.572 16.8007C245.598 17.4161 245.609 18.0323 245.633 18.6476C245.643 18.9193 245.668 19.1901 245.696 19.5914L245.698 19.5923Z" fill="var(--fill-0, #F3EDE3)"/>
<path d="M91.8582 19.4884C92.1535 19.3969 92.2547 19.2087 92.4023 19.0684C93.0723 18.4345 93.7609 17.8192 94.5817 17.3246C96.2304 16.3302 98.0495 16.0567 99.9966 16.4314C101.482 16.7182 102.492 17.512 103.05 18.7221C103.648 20.0158 103.817 21.3814 103.853 22.7532C103.9 24.6213 103.875 26.4903 103.877 28.3585C103.88 30.6847 103.877 33.0101 103.882 35.3364C103.882 35.7138 103.913 36.0885 103.965 36.4649C104.061 37.1708 104.446 37.6662 105.248 37.8589C105.649 37.9548 105.756 38.1386 105.717 38.4627C105.679 38.7761 105.875 39.1783 105.656 39.3852C105.404 39.6223 104.916 39.4722 104.532 39.474C102.519 39.4838 100.505 39.4793 98.4903 39.4775C97.6706 39.4775 97.781 39.5264 97.78 38.8773C97.7769 33.7879 97.7769 28.6994 97.7769 23.61C97.7769 22.9139 97.7872 22.2151 97.6138 21.5314C97.4032 20.703 97.1678 19.8764 95.9713 19.6846C94.8016 19.4973 93.6061 19.9439 92.9856 20.814C92.456 21.5554 92.1968 22.3732 92.0657 23.2282C91.8871 24.3958 91.9336 25.5705 91.9274 26.7416C91.914 29.5243 91.9212 32.3078 91.9243 35.0905C91.9243 35.5273 91.9573 35.9597 92.0306 36.3957C92.1669 37.2054 92.6779 37.7009 93.5782 37.8864C93.9746 37.9681 94.1181 38.1226 94.0737 38.4618C94.0324 38.7743 94.2245 39.1659 94.0107 39.387C93.7826 39.6223 93.3129 39.4713 92.9525 39.4731C90.0825 39.482 87.2124 39.4775 84.3424 39.4784C83.6651 39.4784 83.7395 39.4829 83.7415 38.9652C83.7415 38.8853 83.7415 38.8063 83.7415 38.7264C83.7436 38.0596 83.7415 38.0516 84.4601 37.8314C85.1797 37.6112 85.6112 37.2108 85.7082 36.5386C85.765 36.1435 85.8187 35.7502 85.8187 35.3524C85.8187 30.4228 85.8187 25.4923 85.8177 20.5628C85.8177 20.4242 85.8032 20.2848 85.7939 20.1463C85.731 19.2123 85.2912 18.5401 84.1163 18.3972C83.7839 18.3563 83.7168 18.1965 83.7405 17.9435C83.7766 17.5492 83.5578 17.0582 83.819 16.7839C84.0956 16.4935 84.6893 16.6818 85.1425 16.6587C87.1753 16.5557 89.2091 16.4705 91.2429 16.3772C91.7632 16.3532 91.7632 16.3506 91.7725 16.8087C91.787 17.5244 91.7983 18.24 91.8149 18.9557C91.819 19.1261 91.8417 19.2957 91.8582 19.4902V19.4884Z" fill="var(--fill-0, #F3EDE3)"/>
<path d="M35.3522 16.5042C35.4875 16.7315 35.4245 16.9535 35.4245 17.1657C35.4307 22.6511 35.4328 28.1365 35.4317 33.6219C35.4317 34.2425 35.5061 34.8534 35.7497 35.4385C36.1627 36.4294 37.1331 36.8778 38.3286 36.6523C39.1938 36.4889 39.8308 36.0645 40.2664 35.4083C40.7083 34.7442 40.9633 34.0232 41.0789 33.2712C41.1636 32.7207 41.2307 32.1666 41.2307 31.6081C41.2276 27.9509 41.2307 24.2946 41.2328 20.6373C41.2328 20.3195 41.1976 20.006 41.1388 19.69C41.0077 18.9885 40.5906 18.5144 39.7698 18.3599C39.4095 18.2924 39.2598 18.1539 39.296 17.8343C39.3239 17.5785 39.3228 17.3157 39.2929 17.06C39.2537 16.7271 39.4343 16.6649 39.775 16.6711C40.6309 16.6871 41.4878 16.664 42.3436 16.6791C43.758 16.704 45.1631 16.5797 46.5723 16.5255C47.4219 16.4926 47.329 16.3985 47.3301 17.1763C47.3321 22.7212 47.3321 28.2661 47.3321 33.811C47.3321 34.3873 47.3301 34.9635 47.3332 35.5397C47.3342 35.7582 47.3342 35.9775 47.3569 36.195C47.4674 37.2498 47.8163 37.6174 49.0211 37.898C49.3329 37.9708 49.5105 38.0578 49.4764 38.3703C49.4434 38.666 49.4589 38.967 49.4795 39.2636C49.4971 39.5157 49.4031 39.6303 49.0934 39.6161C48.8405 39.6036 48.5844 39.6258 48.3305 39.6303C46.2017 39.6676 44.077 39.7706 41.9544 39.9153C41.3432 39.957 41.3886 39.9623 41.3814 39.458C41.3721 38.7424 41.3556 38.0276 41.3277 37.312C41.3215 37.145 41.3824 36.9559 41.1863 36.7846C40.987 36.9808 40.7919 37.1717 40.5989 37.3635C39.8844 38.0738 39.104 38.7202 38.1738 39.2209C36.4817 40.1328 34.6667 40.2731 32.7775 39.8087C31.6542 39.5326 30.8324 38.9208 30.3069 38.0205C29.8134 37.1744 29.5874 36.2643 29.45 35.3355C29.3282 34.5071 29.2828 33.6743 29.2838 32.8379C29.288 28.9027 29.2776 24.9676 29.2776 21.0324C29.2776 20.5938 29.2322 20.1605 29.1723 19.7255C29.0825 19.0764 28.7367 18.5899 27.982 18.4034C27.5597 18.2986 27.3646 18.1193 27.4204 17.733C27.4679 17.4027 27.248 16.9819 27.5061 16.7572C27.7631 16.5335 28.2514 16.688 28.6365 16.6889C30.7199 16.6933 32.8012 16.6347 34.8794 16.5219C35.0374 16.5131 35.1953 16.5086 35.3533 16.5024L35.3522 16.5042Z" fill="var(--fill-0, #F3EDE3)"/>
<path d="M203.03 27.2255V19.4129C203.03 19.294 203.017 19.1732 203.032 19.0551C203.071 18.7772 202.958 18.6627 202.612 18.6742C201.988 18.6946 201.362 18.684 200.737 18.6786C200.263 18.6742 200.263 18.6698 200.252 18.2436C200.252 18.224 200.252 18.2036 200.252 18.1841C200.255 17.7268 200.135 17.2349 200.295 16.8221C200.461 16.3905 201.115 16.3009 201.54 16.0407C203.66 14.7408 204.96 12.9482 205.799 10.8758C206.302 9.63367 206.585 8.34623 206.792 7.04635C206.814 6.90873 206.84 6.7711 206.862 6.63348C206.887 6.46744 206.991 6.40352 207.188 6.40707C207.743 6.41506 208.299 6.41151 208.854 6.40707C209.064 6.40529 209.139 6.49408 209.131 6.66367C209.125 6.80218 209.131 6.94158 209.131 7.08098C209.131 10.043 209.131 13.005 209.131 15.967C209.131 16.086 209.147 16.2076 209.128 16.3248C209.077 16.6285 209.245 16.6862 209.563 16.6827C210.79 16.6693 212.017 16.6747 213.244 16.6782C214.083 16.6809 213.985 16.5974 213.991 17.3068C213.994 17.6451 213.972 17.9843 213.998 18.3208C214.02 18.6218 213.868 18.6875 213.551 18.6849C212.324 18.6724 211.097 18.6795 209.87 18.6804C209.708 18.6804 209.546 18.684 209.384 18.6804C209.213 18.6769 209.128 18.7408 209.131 18.8909C209.134 19.0302 209.131 19.1688 209.131 19.3082C209.131 24.497 209.131 29.6859 209.135 34.8738C209.135 35.3098 209.126 35.7466 209.248 36.1781C209.376 36.6292 209.583 37.0021 210.181 37.0998C210.759 37.1939 211.338 36.995 211.677 36.5457C212.151 35.9162 212.376 35.2121 212.49 34.476C212.583 33.8838 212.638 33.2898 212.644 32.6932C212.647 32.4215 212.752 32.2918 213.093 32.3122C213.439 32.3327 213.788 32.3265 214.134 32.3131C214.422 32.3025 214.551 32.3788 214.545 32.6488C214.511 34.2061 214.354 35.7431 213.607 37.1921C212.685 38.9812 211.08 39.9242 208.814 40.044C207.907 40.092 207.012 40.0582 206.142 39.7945C204.907 39.4207 204.068 38.7042 203.597 37.6636C203.189 36.7615 203.051 35.8159 203.046 34.8587C203.031 32.314 203.041 29.7693 203.041 27.2246C203.037 27.2246 203.032 27.2246 203.028 27.2246L203.03 27.2255Z" fill="var(--fill-0, #F3EDE3)"/>
<path d="M52.2535 35.1952C52.2535 33.724 52.2515 32.2536 52.2556 30.7824C52.2566 30.3598 52.2659 30.3473 52.7501 30.3509C53.2333 30.3544 53.8104 30.1946 54.1759 30.4113C54.5506 30.6324 54.4618 31.1686 54.5816 31.5655C55.0586 33.1478 55.6274 34.6945 56.7744 36.0352C57.3267 36.6807 57.9431 37.2667 58.7277 37.7115C59.4607 38.1262 60.269 38.3259 61.1414 38.3721C63.1732 38.4813 64.954 36.9684 64.3532 34.8596C64.0796 33.8971 63.3931 33.154 62.5259 32.5245C62.0303 32.1649 61.479 31.871 60.9411 31.5611C59.249 30.5888 57.5549 29.6202 55.9908 28.4961C55.2619 27.9722 54.5578 27.4279 53.9611 26.7878C51.5835 24.2386 51.7126 20.2058 54.2801 17.8405C55.966 16.2875 58.0546 15.8569 60.4229 16.355C60.8689 16.4491 61.2952 16.6116 61.7299 16.7457C62.0551 16.846 62.3751 16.9623 62.7045 17.052C63.7864 17.3468 64.2056 17.2376 64.8343 16.4518C65.0005 16.244 65.1616 16.1508 65.4486 16.1686C65.8615 16.1943 66.3808 16.0221 66.6637 16.2236C66.961 16.4367 66.769 16.8966 66.7711 17.2465C66.7814 19.5523 66.7773 21.8582 66.7752 24.164C66.7752 24.6408 66.768 24.6417 66.2022 24.6444C65.9018 24.6462 65.5972 24.6186 65.3009 24.6488C64.9406 24.6852 64.8157 24.5245 64.73 24.2697C64.3924 23.2584 63.998 22.2631 63.4715 21.3104C62.9729 20.4065 62.3731 19.5577 61.5441 18.8509C60.553 18.0056 59.3884 17.5519 57.9616 17.8538C56.474 18.169 55.5758 19.5905 56.0497 20.8442C56.2241 21.3059 56.5297 21.7001 56.8952 22.0642C57.781 22.9467 58.8536 23.6349 59.9913 24.2537C61.5151 25.0839 63.0286 25.9256 64.4182 26.9201C65.0594 27.3791 65.6643 27.8692 66.2249 28.4011C69.1817 31.205 69.0196 35.6711 65.9482 38.2372C63.7596 40.0644 61.2003 40.4995 58.3364 39.6445C57.749 39.4696 57.1884 39.2289 56.6216 39.0052C55.901 38.7202 55.2774 38.8125 54.7437 39.3222C54.6817 39.3808 54.6002 39.4269 54.5496 39.4918C54.0974 40.0636 53.4522 40.1355 52.713 40.0813C52.3527 40.0547 52.2381 39.9801 52.2474 39.6676C52.2701 38.8534 52.2556 38.0374 52.2556 37.2232C52.2556 36.5475 52.2556 35.8718 52.2556 35.1952H52.2535Z" fill="var(--fill-0, #F3EDE3)"/>
<path d="M148.246 35.237C148.246 33.7861 148.245 32.3353 148.246 30.8845C148.246 30.35 148.252 30.35 148.898 30.3465C149.153 30.3456 149.407 30.3447 149.662 30.3465C150.265 30.35 150.26 30.3518 150.389 30.8295C150.529 31.3515 150.662 31.8754 150.829 32.3904C151.132 33.3289 151.533 34.2372 152.076 35.0958C152.61 35.9411 153.286 36.6922 154.121 37.3351C154.944 37.9681 155.916 38.3091 157.012 38.3597C159.423 38.4716 160.964 36.7961 160.316 34.7895C159.993 33.787 159.276 33.0226 158.334 32.4117C157.615 31.9455 156.857 31.5247 156.106 31.0958C154.373 30.1032 152.679 29.0661 151.132 27.863C149.892 26.8988 148.899 25.7916 148.538 24.3505C148.066 22.4682 148.14 20.6285 149.318 18.9299C150.651 17.0076 152.617 16.0389 155.259 16.1712C156.077 16.2121 156.839 16.4465 157.598 16.688C158.03 16.8256 158.451 16.9996 158.893 17.1088C159.756 17.3219 160.257 17.1808 160.744 16.5397C160.966 16.2476 161.202 16.1366 161.582 16.1677C161.946 16.1979 162.401 16.0309 162.657 16.2254C162.923 16.4287 162.747 16.8265 162.75 17.1373C162.76 19.4422 162.756 21.7481 162.755 24.0531C162.755 24.6888 162.828 24.6515 162.101 24.64C161.688 24.6337 161.176 24.782 160.89 24.5654C160.64 24.3763 160.641 23.9465 160.519 23.626C160.02 22.3217 159.441 21.0484 158.551 19.8968C158.061 19.2629 157.493 18.6884 156.728 18.2853C155.87 17.8325 154.957 17.6132 153.949 17.8449C152.559 18.1646 151.669 19.4831 152.018 20.6835C152.197 21.3024 152.601 21.8005 153.09 22.2595C153.957 23.0737 154.998 23.7015 156.065 24.299C157.478 25.091 158.907 25.8626 160.217 26.7824C161.189 27.4643 162.093 28.2004 162.822 29.083C165.174 31.9322 164.751 35.9579 161.815 38.341C159.519 40.2047 156.868 40.4969 153.978 39.5282C153.505 39.3701 153.052 39.1703 152.588 38.9936C151.901 38.7326 151.284 38.7974 150.762 39.2911C150.7 39.3497 150.617 39.3941 150.566 39.4589C150.123 40.0263 149.471 40.1204 148.743 40.0831C148.262 40.0591 148.251 40.0742 148.25 39.6471C148.244 38.1768 148.248 36.7055 148.248 35.2352L148.246 35.237Z" fill="var(--fill-0, #F3EDE3)"/>
<path d="M129.425 35.173C129.425 33.7222 129.426 32.2723 129.425 30.8215C129.425 30.3225 129.389 30.3447 130.001 30.3473C130.325 30.3482 130.651 30.3713 130.972 30.3465C131.329 30.3189 131.453 30.4494 131.519 30.7353C131.821 32.0414 132.234 33.32 132.903 34.5293C133.453 35.5238 134.121 36.4445 135.076 37.1957C136.056 37.9664 137.197 38.3588 138.534 38.373C140.227 38.3908 141.877 37.1628 141.589 35.2512C141.43 34.1999 140.787 33.3591 139.867 32.6745C139.113 32.1142 138.272 31.657 137.441 31.1864C135.51 30.0907 133.655 28.9152 131.934 27.5762C129.039 25.3254 128.79 21.3379 130.443 18.9788C131.824 17.0067 133.827 15.9866 136.563 16.1863C137.352 16.244 138.093 16.4731 138.827 16.7173C139.32 16.8815 139.805 17.0689 140.332 17.1568C140.971 17.2633 141.494 17.1222 141.823 16.6356C142.074 16.2645 142.394 16.1464 142.891 16.1597C143.914 16.1872 143.915 16.1597 143.915 17.0227C143.915 19.3277 143.915 21.6327 143.915 23.9376C143.915 24.077 143.904 24.2164 143.917 24.3549C143.938 24.5982 143.794 24.6586 143.54 24.6497C143.193 24.6373 142.845 24.6302 142.499 24.6515C142.146 24.6728 141.974 24.5805 141.876 24.2617C141.635 23.4759 141.327 22.7061 140.965 21.9532C140.468 20.9188 139.846 19.9492 138.988 19.1013C138.299 18.4212 137.46 17.9532 136.415 17.7916C135.249 17.6114 134.308 17.9586 133.63 18.7701C132.966 19.5648 132.922 20.4305 133.444 21.2997C133.844 21.963 134.453 22.4824 135.102 22.9663C135.979 23.6189 136.957 24.149 137.931 24.6844C139.49 25.5421 141.007 26.4468 142.378 27.5238C143.704 28.5653 144.727 29.7729 145.184 31.2805C146.084 34.2434 144.937 37.1335 142.284 38.8454C140.171 40.2092 137.845 40.4018 135.395 39.601C134.792 39.4038 134.201 39.1792 133.607 38.9599C132.975 38.7273 132.436 38.8463 131.967 39.2582C131.902 39.3151 131.825 39.3639 131.772 39.4278C131.325 39.9597 130.724 40.1452 129.969 40.0893C129.436 40.0502 129.428 40.0831 129.428 39.585C129.426 38.1146 129.428 36.6443 129.428 35.1739L129.425 35.173Z" fill="var(--fill-0, #F3EDE3)"/>
<path d="M315.712 20.7022C316.132 19.8986 316.525 19.1599 317.07 18.4922C317.887 17.4898 318.895 16.696 320.314 16.3826C321.042 16.2218 321.786 16.2192 322.504 16.4234C324.655 17.0352 325.224 18.8243 324.768 20.2573C324.285 21.7774 322.446 22.6413 320.61 22.2462C319.733 22.058 319.087 21.5971 318.664 20.9126C318.512 20.6675 318.383 20.4136 318.242 20.1614C318.011 20.181 317.967 20.3594 317.877 20.4864C317.014 21.7081 316.537 23.0542 316.236 24.4446C315.826 26.3429 315.651 28.2617 315.672 30.1946C315.69 31.9828 315.685 33.7711 315.683 35.5593C315.683 35.9206 315.726 36.2758 315.849 36.6176C316.025 37.106 316.384 37.4283 316.993 37.549C317.472 37.644 317.953 37.6733 318.438 37.6893C318.776 37.7009 318.948 37.7817 318.913 38.1111C318.878 38.4458 318.882 38.7877 318.913 39.1233C318.941 39.4278 318.791 39.5122 318.474 39.4775C318.383 39.4678 318.289 39.4758 318.196 39.4758C314.795 39.4758 311.394 39.4758 307.993 39.4758C307.831 39.4758 307.669 39.4775 307.507 39.4722C307.339 39.4669 307.261 39.387 307.265 39.244C307.267 39.165 307.261 39.0851 307.266 39.0061C307.289 38.6909 307.156 38.3357 307.335 38.0702C307.512 37.8083 307.957 37.8607 308.279 37.7621C309.083 37.5171 309.531 37.0643 309.585 36.3149C309.622 35.799 309.678 35.2858 309.677 34.7682C309.673 30.1183 309.669 25.4684 309.673 20.8194C309.673 20.4384 309.61 20.0664 309.536 19.6953C309.419 19.1004 309.029 18.684 308.35 18.4877C308.262 18.4629 308.168 18.4505 308.086 18.4167C307.778 18.2924 307.26 18.3839 307.164 18.1139C307.029 17.7313 307.105 17.29 307.115 16.8736C307.12 16.6374 307.356 16.68 307.531 16.6738C308.595 16.6347 309.658 16.6045 310.72 16.5619C312.153 16.5042 313.585 16.4385 315.017 16.3737C315.513 16.3515 315.516 16.3488 315.525 16.7626C315.548 17.8751 315.563 18.9876 315.59 20.1002C315.594 20.2733 315.557 20.4553 315.714 20.7013L315.712 20.7022Z" fill="var(--fill-0, #F3EDE3)"/>
<path d="M78.9946 26.3918C78.9946 29.471 78.9936 32.5493 78.9967 35.6285C78.9967 35.926 79.0225 36.2216 79.0823 36.5173C79.2289 37.2418 79.7111 37.6796 80.5308 37.8758C81.1069 38.0134 81.1172 38.0285 81.1038 38.492C81.0945 38.8036 81.2752 39.197 81.0253 39.4065C80.7775 39.6134 80.3212 39.4731 79.9578 39.474C77.0898 39.4811 74.2218 39.4784 71.3539 39.4767C70.7953 39.4767 70.7953 39.4722 70.7912 38.999C70.7912 38.9794 70.7943 38.959 70.7912 38.9395C70.7138 38.3481 70.7912 37.9033 71.6574 37.7506C72.3367 37.6307 72.6939 37.1317 72.7837 36.5209C72.8498 36.0663 72.8808 35.6117 72.8808 35.1544C72.8787 30.3669 72.8766 25.5802 72.8777 20.7927C72.8777 20.434 72.8395 20.0797 72.7847 19.7246C72.6836 19.0587 72.2562 18.6449 71.5066 18.47C71.3735 18.4389 71.2403 18.399 71.105 18.3803C70.8924 18.351 70.7829 18.2702 70.7933 18.0678C70.8149 17.6327 70.816 17.1959 70.8263 16.7599C71.2878 16.5903 71.7771 16.6782 72.2531 16.6551C74.2621 16.5575 76.2711 16.4802 78.2802 16.3808C78.9512 16.3479 78.9688 16.2609 78.9678 16.9162C78.9647 20.0744 78.9657 23.2326 78.9657 26.3909C78.976 26.3909 78.9853 26.3909 78.9956 26.3909L78.9946 26.3918Z" fill="var(--fill-0, #F3EDE3)"/>
<path d="M75.3575 10.8341C73.5239 10.8385 71.9248 9.44988 71.9289 7.857C71.933 6.32183 73.5529 4.9305 75.3482 4.91985C77.1817 4.90919 78.8201 6.2943 78.8315 7.86588C78.8428 9.39838 77.1673 10.8297 75.3575 10.8341Z" fill="var(--fill-0, #F3EDE3)"/>
<path d="M346.619 37.5872C345.972 37.446 345.683 37.0607 345.583 36.5191C345.496 36.0449 345.476 35.5708 345.476 35.094C345.476 25.337 345.478 15.5799 345.474 5.82283C345.474 5.46945 345.544 5.10453 345.327 4.77157C344.928 4.57268 344.493 4.72717 344.078 4.67745C343.913 4.68633 343.744 4.65081 343.586 4.72007C341.607 4.89676 339.615 4.91452 337.632 5.04681C337.273 5.07079 336.805 4.93849 336.578 5.17822C336.362 5.40641 336.542 5.79087 336.505 6.10341C336.467 6.43193 336.567 6.62815 337.002 6.66189C337.273 6.68231 337.536 6.78087 337.799 6.85368C338.396 7.01883 338.773 7.35179 338.914 7.89074C339.052 8.41726 339.126 8.94644 339.127 9.48451C339.13 12.3062 339.132 15.1271 339.13 17.9488C339.13 18.0971 339.172 18.256 339.058 18.4522C338.757 18.177 338.498 17.9319 338.228 17.6966C337.487 17.0494 336.648 16.5255 335.606 16.3124C333.768 15.9351 332.074 16.2343 330.557 17.2074C329.752 17.7242 329.108 18.3723 328.554 19.0897C327.235 20.7963 326.567 22.7017 326.231 24.7057C325.827 27.119 325.83 29.5367 326.228 31.9509C326.494 33.5713 326.979 35.1384 327.884 36.5919C328.48 37.5482 329.237 38.3952 330.266 39.0407C332.054 40.1639 334.937 40.6354 337.291 39.0336C337.818 38.6749 338.317 38.2931 338.805 37.8962C338.909 37.811 338.977 37.6503 339.235 37.7151C339.259 38.2966 339.276 38.8862 339.308 39.4758C339.333 39.9339 339.342 39.9464 339.868 39.9011C341.227 39.7848 342.589 39.7315 343.949 39.6356C345.032 39.5601 346.124 39.6072 347.2 39.4474V37.8971C347.044 37.7417 346.85 37.6405 346.619 37.5899V37.5872ZM339.131 27.6766C339.131 29.7382 339.134 31.2477 339.129 32.758C339.127 33.4745 339.037 34.1848 338.866 34.8871C338.736 35.4181 338.467 35.8976 338.145 36.361C337.152 37.7888 334.477 37.7417 333.609 36.1107C333.169 35.2849 333.008 34.405 332.895 33.5162C332.608 31.2406 332.581 28.956 332.603 26.6706C332.62 24.9809 332.713 23.2957 333.032 21.6256C333.118 21.1736 333.275 20.7368 333.478 20.3141C333.87 19.5044 334.508 18.9566 335.585 18.8944C336.705 18.8296 337.564 19.2211 338.158 20.0256C338.69 20.7439 338.92 21.5483 339.012 22.39C339.224 24.3336 339.095 26.2826 339.131 27.6766Z" fill="var(--fill-0, #F3EDE3)"/>
<path d="M24.7372 29.7738C24.6556 27.7547 23.777 26.034 22.1077 24.6151C20.9029 23.5905 19.441 22.9201 17.878 22.398C16.6928 22.002 15.458 21.7552 14.1861 21.5164C14.4205 21.3867 14.6507 21.3645 14.8727 21.3166C16.4976 20.9694 18.04 20.4553 19.442 19.6544C21.0629 18.7284 22.3059 17.5324 23.0327 15.9661C23.5561 14.8376 23.6707 13.6576 23.6232 12.4563C23.5602 10.89 22.9408 9.51025 21.769 8.31426C20.5549 7.07476 18.9805 6.31561 17.2152 5.81395C15.3507 5.28388 13.419 5.11785 11.472 5.10453C7.79354 5.07789 4.11409 5.09121 0.43567 5.08943C0.297329 5.08943 0.160021 5.10808 0.0216803 5.11785C0.0144535 5.62483 0.00722675 6.13182 0 6.63881C0.184798 6.78265 0.43154 6.77022 0.65144 6.81994C1.81391 7.08364 2.26817 7.53824 2.35592 8.56909C2.38999 8.96509 2.41064 9.36286 2.41167 9.75887C2.4189 18.0402 2.42406 26.3216 2.42303 34.603C2.42303 35.0993 2.39412 35.5957 2.34766 36.0902C2.2692 36.9266 1.81908 37.5091 0.803202 37.6938C0.53478 37.7426 0.277714 37.8394 0.0154859 37.914C0.0134211 38.4201 0.0103239 38.9271 0.00825914 39.4332C0.628727 39.529 1.25436 39.4758 1.87689 39.474C5.64822 39.4633 9.42059 39.5388 13.1899 39.4349C15.4023 39.3737 17.5486 38.9945 19.5442 38.1297C22.0385 37.0492 23.6583 35.3417 24.3707 33.0252C24.6969 31.9651 24.7785 30.8721 24.7341 29.7738H24.7372ZM9.43814 18.3102C9.43814 16.9597 9.43814 15.6092 9.43814 14.2587H9.44124C9.44124 12.4314 9.44124 10.6041 9.44124 8.77685C9.44124 8.37908 9.45879 7.98397 9.5548 7.59241C9.68178 7.07565 9.90788 6.83414 10.4891 6.78353C11.5071 6.69563 12.5198 6.71783 13.4882 7.06944C14.3162 7.37043 14.9026 7.86765 15.2546 8.58241C15.6748 9.43567 15.8348 10.3387 15.9309 11.2461C16.0888 12.7298 16.1869 14.217 15.967 15.706C15.8679 16.3763 15.7223 17.036 15.49 17.6833C14.8076 19.5807 13.2508 20.5219 11.0074 20.7048C10.6171 20.7368 10.2207 20.7146 9.82941 20.735C9.53312 20.7501 9.42678 20.6595 9.43401 20.3976C9.45259 19.7024 9.43917 19.0072 9.43917 18.3119L9.43814 18.3102ZM16.5142 34.2274C16.4202 34.5737 16.286 34.9147 16.1301 35.2441C15.2588 37.0785 13.6431 37.9477 11.346 37.8287C10.2816 37.7737 9.75095 37.3688 9.57545 36.4623C9.47737 35.9517 9.44227 35.4359 9.44124 34.9182C9.43917 30.8845 9.43814 26.8508 9.43814 22.818C9.43814 22.2844 9.44433 22.2799 10.039 22.3217C10.6378 22.3634 11.2366 22.4167 11.8209 22.5436C13.96 23.0062 15.395 24.1241 16.1126 25.9239C16.4749 26.8322 16.6618 27.768 16.7754 28.7172C16.8394 29.2499 16.8559 29.788 16.893 30.3234C16.9694 31.6401 16.86 32.9444 16.5131 34.2283L16.5142 34.2274Z" fill="var(--fill-0, #F3EDE3)"/>
<path d="M283.813 38.2238C283.813 38.2043 283.812 38.1839 283.813 38.1644C283.821 38.0063 283.769 37.8998 283.556 37.8793C283.42 37.8669 283.29 37.8136 283.153 37.7923C282.354 37.6716 281.979 37.248 281.888 36.5706C281.809 35.9757 281.8 35.3817 281.8 34.7859C281.798 24.9907 281.798 15.1945 281.798 5.39931C281.798 5.18089 281.786 4.96335 281.779 4.74493C281.363 4.73516 280.947 4.72451 280.531 4.71474C280.394 4.71563 280.256 4.71741 280.118 4.71829C278.577 4.86036 277.027 4.90209 275.481 4.97578C274.811 5.00775 274.142 5.04326 273.473 5.08144C273.321 5.09032 273.105 5.05037 273.093 5.24659C273.068 5.66124 272.968 6.10252 273.147 6.48254C273.266 6.73292 273.725 6.66544 274.02 6.76578C274.148 6.80928 274.281 6.8448 274.411 6.88387C275.063 7.08009 275.415 7.48497 275.548 8.05589C275.658 8.52647 275.687 9.00149 275.688 9.47829C275.692 12.3 275.697 15.1209 275.695 17.9426C275.695 18.0909 275.753 18.2525 275.615 18.4256C275.179 18.0562 274.777 17.6833 274.336 17.3468C272.919 16.2653 271.27 15.9439 269.431 16.2796C267.782 16.5806 266.565 17.4374 265.558 18.541C264.369 19.8444 263.655 21.3468 263.188 22.9379C262.497 25.2917 262.41 27.6881 262.555 30.0978C262.669 31.9731 263.046 33.803 263.865 35.5522C264.469 36.8414 265.306 37.9957 266.577 38.8835C268.295 40.0831 271.242 40.7215 273.764 39.0682C274.336 38.6935 274.866 38.2816 275.374 37.8456C275.478 37.7568 275.541 37.5961 275.843 37.6503C275.843 38.2292 275.835 38.8196 275.845 39.4101C275.854 39.9384 275.865 39.9428 276.46 39.8931C278.441 39.7279 280.428 39.6489 282.412 39.5424C284.188 39.4465 283.759 39.7324 283.816 38.2212L283.813 38.2238ZM275.7 28.338C275.69 28.338 275.681 28.338 275.672 28.338C275.672 29.986 275.682 31.6339 275.667 33.2818C275.66 33.9984 275.528 34.7051 275.256 35.3861C275.058 35.8789 274.769 36.3273 274.353 36.7118C273.234 37.7479 271.231 37.5961 270.339 36.4072C269.89 35.8097 269.705 35.1322 269.584 34.445C269.319 32.9515 269.184 31.4466 269.163 29.9371C269.136 27.8923 269.098 25.8475 269.268 23.8045C269.343 22.8917 269.481 21.9887 269.709 21.0964C269.792 20.7661 269.936 20.4535 270.104 20.1472C271.075 18.3785 273.555 18.5934 274.58 19.8782C275.141 20.5805 275.436 21.3654 275.55 22.2062C275.74 23.6109 275.69 25.0218 275.7 26.4308C275.704 27.0666 275.7 27.7014 275.7 28.3371V28.338Z" fill="var(--fill-0, #F3EDE3)"/>
<path d="M306.109 34.342C306.11 34.1449 306.047 34.0445 305.796 34.0587C305.431 34.08 305.061 34.025 304.698 34.1005C304.569 34.6829 304.612 35.2663 304.433 35.8265C304.344 36.1027 304.224 36.353 303.95 36.5288C303.459 36.8441 302.944 36.7038 302.749 36.2039C302.63 35.8976 302.632 35.5797 302.633 35.2601C302.634 31.2255 302.633 27.1909 302.633 23.1563C302.633 22.3616 302.623 21.567 302.478 20.7785C302.079 18.612 300.74 17.1506 298.234 16.5397C296.534 16.1259 294.815 16.1188 293.076 16.2929C291.109 16.49 289.381 17.1284 287.893 18.2471C287.309 18.6866 286.846 19.2069 286.596 19.8418C286.23 20.7767 286.159 21.7152 286.771 22.6022C287.763 24.0389 290.344 24.4642 291.905 23.4635C293.512 22.4335 293.53 20.4402 291.931 19.3588C291.627 19.1537 291.283 18.9956 290.89 18.779C291.521 18.3892 292.146 18.1406 292.843 18.05C295.025 17.7659 295.99 18.5819 296.335 20.0522C296.344 20.0913 296.351 20.1303 296.356 20.1703C296.56 21.6966 296.46 23.2273 296.472 24.7572C296.474 24.9552 296.364 25.0439 296.176 25.1026C296.003 25.1567 295.827 25.2055 295.655 25.2615C293.922 25.8262 292.248 26.493 290.721 27.404C289.149 28.3416 287.753 29.4364 286.747 30.8534C285.512 32.5928 285.059 34.4636 285.687 36.4525C286.286 38.3508 287.672 39.6418 289.982 39.9916C291.855 40.2758 293.556 39.8292 295.015 38.761C295.723 38.2425 296.302 37.6236 296.854 36.9835C297.077 37.1095 297.116 37.3191 297.223 37.4896C297.509 37.945 297.827 38.381 298.226 38.7726C300.176 40.6833 304.424 40.7082 305.695 37.4594C305.739 37.3466 305.777 37.2321 305.819 37.1193C306.153 36.2119 306.105 35.2751 306.11 34.342H306.109ZM296.238 34.4592C296.031 35.1198 295.699 35.7226 295.202 36.2598C294.921 36.5653 294.566 36.7757 294.132 36.8867C293.275 37.106 292.507 36.8272 292.087 36.1488C291.866 35.7928 291.747 35.4048 291.698 35.0123C291.471 33.2481 291.623 31.522 292.513 29.8874C293.306 28.4295 294.577 27.4333 296.48 26.9005C296.48 28.6612 296.476 30.3473 296.481 32.0334C296.483 32.8485 296.486 33.6618 296.237 34.4583L296.238 34.4592Z" fill="var(--fill-0, #F3EDE3)"/>
<path d="M235.011 34.0587C234.783 34.0721 234.684 34.1227 234.673 34.3295C234.657 34.6669 234.611 35.0026 234.571 35.3391C234.526 35.7191 234.413 36.084 234.153 36.3992C233.945 36.6505 233.636 36.7295 233.293 36.6727C232.983 36.6212 232.829 36.4214 232.769 36.1737C232.684 35.823 232.648 35.4687 232.649 35.1082C232.652 31.0346 232.649 26.9609 232.646 22.8873C232.646 22.1521 232.63 21.4196 232.487 20.6897C232.071 18.5712 230.735 17.1275 228.29 16.553C225.722 15.9493 223.16 16.0416 220.652 16.8105C219.419 17.1888 218.35 17.8147 217.459 18.6529C216.931 19.1501 216.592 19.7264 216.425 20.379C216.008 22.0145 217.011 23.4875 218.834 23.8861C219.587 24.0504 220.345 24.0273 221.094 23.8338C221.742 23.6668 222.245 23.3365 222.624 22.8624C223.604 21.6344 223.196 20.0575 221.668 19.1741C221.443 19.0445 221.203 18.9352 220.915 18.7887C221.984 18.1415 223.074 17.8502 224.334 18.0633C225.181 18.2072 225.758 18.5996 226.085 19.2726C226.338 19.7912 226.463 20.3399 226.473 20.8966C226.496 22.1485 226.47 23.4005 226.495 24.6524C226.501 24.9605 226.343 25.0573 226.048 25.1452C225.132 25.4186 224.237 25.7418 223.367 26.1076C221.012 27.0968 218.898 28.3558 217.307 30.1795C215.859 31.8399 215.208 33.6903 215.537 35.7715C215.96 38.4431 218.743 40.9337 222.974 39.7839C224.437 39.3861 225.517 38.5168 226.436 37.4904C226.583 37.3253 226.728 37.1593 226.877 36.9897C227.111 37.1459 227.16 37.3502 227.268 37.5197C227.582 38.009 227.933 38.4716 228.374 38.8853C230.166 40.5688 234.147 40.6931 235.556 37.819C236.008 36.8973 236.122 35.9455 236.123 34.9653C236.123 33.985 236.13 33.9913 235.009 34.0587H235.011ZM226.474 33.3449C226.452 34.3748 226.048 35.3293 225.315 36.163C224.873 36.6656 224.302 36.9719 223.544 36.9488C222.946 36.9311 222.487 36.7055 222.186 36.2501C221.896 35.8097 221.748 35.3275 221.692 34.8348C221.502 33.1504 221.673 31.5016 222.508 29.9442C223.297 28.4703 224.56 27.4324 226.486 26.9059C226.486 29.0972 226.517 31.2219 226.473 33.344L226.474 33.3449Z" fill="var(--fill-0, #F3EDE3)"/>
<path d="M125.425 31.7253C125.008 31.7265 124.762 31.8994 124.687 32.2439C124.45 33.3404 124.146 34.4157 123.458 35.3844C122.993 36.0378 122.438 36.6132 121.673 37.0216C120.081 37.8713 117.434 37.8749 116.2 35.8114C115.924 35.3506 115.697 34.8774 115.531 34.3793C114.982 32.7384 114.883 31.0559 114.901 29.3627C114.909 28.6017 114.813 28.695 115.681 28.6932C119.152 28.6888 122.622 28.6905 126.093 28.6879C126.637 28.6879 126.648 28.6808 126.642 28.2475C126.614 26.295 126.41 24.3594 125.811 22.4691C125.281 20.7998 124.447 19.2611 123.009 18.0127C121.647 16.83 119.988 16.2156 118.05 16.1606C115.478 16.0878 113.366 16.9295 111.665 18.5579C110.294 19.8693 109.435 21.4222 108.873 23.1004C107.937 25.8981 107.846 28.742 108.37 31.601C108.754 33.6956 109.666 35.6099 111.251 37.2623C113.2 39.2938 115.698 40.2482 118.763 40.0325C120.721 39.8949 122.428 39.2618 123.808 38.0285C124.604 37.3173 125.2 36.496 125.64 35.5912C126.231 34.3748 126.541 33.1034 126.634 31.7253C126.202 31.7253 125.813 31.7245 125.423 31.7253H125.425ZM115.549 19.9403C115.729 19.3845 115.96 18.8456 116.362 18.3732C117.119 17.4835 118.502 17.5048 119.21 18.4185C119.655 18.9921 119.855 19.6429 119.983 20.3124C120.236 21.6291 120.295 22.9574 120.304 24.2884C120.304 24.9632 120.293 25.6388 120.309 26.3136C120.315 26.5747 120.273 26.7034 119.9 26.6981C118.351 26.6768 116.802 26.6848 115.252 26.6901C114.988 26.6901 114.833 26.6652 114.832 26.3776C114.825 24.2111 114.861 22.0491 115.548 19.9395L115.549 19.9403Z" fill="var(--fill-0, #F3EDE3)"/>
</g>
<path id="Vector_2" d="M506.703 10.9936C504.583 8.23397 502.326 6.76218 498.906 5.96496C496.786 5.47436 493.776 5.16773 491.041 5.16773H479.824V5.78098H479.961C482.902 6.51688 483.654 7.49808 483.654 10.5643V32.212C483.654 37.0566 483.175 39.6936 482.012 40.7361C481.602 40.2455 481.26 39.387 480.781 38.3444C480.576 37.9152 480.371 37.4246 480.166 36.8726C479.619 35.6462 478.661 33.3771 478.388 32.7026L467.034 3.26667L455.749 32.0893C455.407 32.8865 454.791 34.6036 454.723 34.7263C454.176 36.1981 453.628 37.1179 452.944 38.1605C451.987 39.5709 451.235 40.3068 449.935 40.9201L449.867 40.9814V41.5333H462.041V40.9201H461.904C460.468 40.7974 458.895 39.9389 458.621 38.2831C458.553 37.7312 458.416 36.0754 458.416 35.4622V35.3395C458.416 33.9904 458.484 31.4761 459.168 28.7165H470.454L472.095 33.8064C472.164 33.9904 472.232 34.297 472.369 34.6036C472.984 36.5047 473.189 37.4246 473.189 38.2831C473.189 39.8162 472.3 40.6135 470.317 40.8588H470.18V41.472H495.008C498.975 41.472 501.71 40.6135 504.173 38.7124C508.139 35.5848 510.533 29.8203 510.533 23.3199C510.465 18.5365 509.097 14.1212 506.703 10.9936ZM503.352 23.6265C503.215 30.4335 502.257 33.1932 500.684 35.5235C498.085 39.387 496.854 40.7361 490.015 40.9201V5.84231C496.786 5.84231 499.795 8.05 502.326 14.9797C503.078 17.0647 503.352 19.6404 503.352 23.6265ZM462.041 18.3526L463.135 15.041L463.751 13.3853C463.751 13.3239 463.956 12.8947 464.093 12.4654C464.23 12.0974 464.366 11.7295 464.503 11.4229L470.043 28.0419H459.1C459.921 25.2209 461.289 20.7442 462.041 18.3526Z" fill="var(--fill-0, #F3EDE3)"/>
<g id="Vector_3">
<path d="M672.728 12.5386C673.615 11.7943 674.403 11.1294 675.275 10.545C677.076 9.33544 679.053 8.80157 681.312 9.36189C683.381 9.87531 684.23 11.2617 684.67 12.9246C684.96 14.0248 684.983 15.1466 684.983 16.2673C684.985 22.5161 684.977 28.765 684.996 35.0138C684.998 35.4876 684.913 35.6643 684.301 35.6475C682.728 35.603 681.151 35.6078 679.577 35.6463C679.028 35.6595 678.949 35.5032 678.95 35.0763C678.967 28.9273 678.961 22.7782 678.961 16.6304C678.961 16.0268 678.906 15.4268 678.678 14.8556C678.296 13.8961 677.286 13.438 676.188 13.7615C674.819 14.1655 673.93 15.1226 672.965 15.9811C672.794 16.1326 672.893 16.3683 672.893 16.563C672.889 22.7121 672.879 28.8612 672.908 35.009C672.911 35.5645 672.721 35.6559 672.142 35.6427C670.569 35.6078 668.992 35.6174 667.417 35.6403C666.994 35.6463 666.879 35.5573 666.879 35.1809C666.893 26.8087 666.892 18.4364 666.882 10.0653C666.882 9.74666 666.946 9.61559 667.363 9.62161C668.984 9.64325 670.606 9.64926 672.227 9.6192C672.701 9.61079 672.746 9.7695 672.735 10.1038C672.711 10.8757 672.728 11.6488 672.728 12.5362V12.5386Z" fill="var(--fill-0, #F3EDE3)"/>
<path d="M738.774 22.3345C738.821 20.4576 738.635 18.2909 739.024 16.1422C739.201 15.1707 739.483 14.2256 739.95 13.3262C741.324 10.6809 743.805 9.44005 747.038 9.19235C748.684 9.0661 750.327 9.13464 751.913 9.58674C755.047 10.4801 756.639 12.5146 757.36 15.1695C757.62 16.1266 757.717 17.1029 757.798 18.0817C757.833 18.5037 757.744 18.6745 757.182 18.66C755.632 18.6203 754.078 18.6276 752.526 18.6564C752.001 18.666 751.781 18.5722 751.826 18.0733C751.87 17.5791 751.858 17.0777 751.713 16.5823C751.272 15.0721 749.953 14.3266 747.916 14.4552C746.197 14.5647 745.029 15.5386 744.869 17.0019C744.854 17.1414 744.844 17.2821 744.844 17.4216C744.844 20.9073 744.833 24.3918 744.848 27.8764C744.854 29.1112 745.386 30.1008 746.794 30.595C748.226 31.0976 749.988 30.8283 750.936 29.9854C751.496 29.4876 751.738 28.8744 751.81 28.2022C751.838 27.9437 751.837 27.6828 751.838 27.4219C751.845 26.565 752.354 26.1365 753.367 26.1365C754.71 26.1365 756.055 26.1413 757.398 26.1329C757.696 26.1305 757.879 26.163 757.866 26.4804C757.795 28.409 757.576 30.3124 756.611 32.0896C755.221 34.6483 752.767 35.8314 749.622 36.0743C748.119 36.191 746.614 36.1441 745.143 35.7966C741.909 35.0318 740.139 33.0852 739.318 30.381C738.934 29.1161 738.801 27.8211 738.777 26.5189C738.753 25.2167 738.771 23.9157 738.771 22.3309L738.774 22.3345Z" fill="var(--fill-0, #F3EDE3)"/>
<path d="M613.214 17.8292C613.214 12.0829 613.221 6.33546 613.2 0.589207C613.199 0.113058 613.345 -0.00357483 613.881 0.00604434C615.594 0.0373066 617.31 0.050533 619.021 0.00123475C619.695 -0.0180036 619.783 0.186404 619.781 0.69622C619.765 10.2072 619.774 19.7181 619.756 29.2303C619.756 29.7533 619.869 29.9265 620.525 29.9193C623.581 29.8844 626.638 29.9145 629.695 29.894C630.2 29.8904 630.362 29.9782 630.35 30.4471C630.309 32.0078 630.323 33.5709 630.343 35.1329C630.347 35.4888 630.296 35.6475 629.799 35.6463C624.45 35.6282 619.1 35.6258 613.752 35.6487C613.168 35.6511 613.21 35.4118 613.211 35.0715C613.218 29.3253 613.215 23.5778 613.215 17.8316L613.214 17.8292Z" fill="var(--fill-0, #F3EDE3)"/>
<path d="M648.409 26.2652C648.635 25.3321 648.867 24.4003 649.087 23.466C650.127 19.04 651.171 14.614 652.193 10.1843C652.292 9.75628 652.47 9.60838 652.994 9.6192C654.567 9.65407 656.144 9.65407 657.719 9.6192C658.272 9.60718 658.368 9.72501 658.244 10.1759C657.075 14.4324 655.928 18.6937 654.774 22.9538C653.673 27.0191 652.561 31.082 651.482 35.1521C651.374 35.5633 651.177 35.6451 650.74 35.6403C649.165 35.621 647.59 35.6114 646.015 35.6451C645.52 35.6559 645.354 35.52 645.246 35.1148C643.811 29.7425 642.354 24.375 640.904 19.0051C640.101 16.0292 639.315 13.0484 638.485 10.0773C638.366 9.64926 638.499 9.62041 638.915 9.62521C640.56 9.64085 642.204 9.64565 643.849 9.62161C644.285 9.61559 644.437 9.73343 644.522 10.1002C645.774 15.4857 647.046 20.8676 648.314 26.2495C648.346 26.2544 648.378 26.2592 648.41 26.2628L648.409 26.2652Z" fill="var(--fill-0, #F3EDE3)"/>
<path d="M728.581 23.3542C728.581 20.6103 728.57 17.8664 728.592 15.1226C728.595 14.6777 728.509 14.4805 727.924 14.5057C727.361 14.5298 726.601 14.7462 726.272 14.3999C725.995 14.109 726.177 13.4825 726.175 13.0052C726.168 12.024 726.189 11.0416 726.164 10.0605C726.155 9.71419 726.28 9.60117 726.674 9.62642C727.088 9.65287 727.511 9.60598 727.924 9.63964C728.407 9.67932 728.553 9.53624 728.546 9.11179C728.519 7.42964 728.552 5.74628 728.524 4.06413C728.517 3.63247 728.615 3.47856 729.161 3.49059C730.804 3.52546 732.45 3.51464 734.095 3.4954C734.49 3.49059 734.595 3.58798 734.591 3.92706C734.572 5.64889 734.604 7.37192 734.567 9.09496C734.558 9.56029 734.718 9.66489 735.225 9.64445C736.126 9.60718 737.032 9.64686 737.935 9.62762C738.293 9.6192 738.418 9.70217 738.414 10.028C738.395 11.3903 738.391 12.7526 738.414 14.1138C738.421 14.4913 738.229 14.5334 737.872 14.5274C736.946 14.5118 736.019 14.5346 735.093 14.5154C734.73 14.5081 734.57 14.5574 734.572 14.9254C734.587 19.6328 734.576 24.3389 734.587 29.0463C734.59 30.0167 735.389 30.6864 736.642 30.8006C737.1 30.8427 737.57 30.8523 738.029 30.8126C738.427 30.7778 738.484 30.9064 738.481 31.2046C738.467 32.6271 738.473 34.0483 738.477 35.4707C738.477 35.698 738.505 35.9096 738.136 35.9481C736.315 36.1381 734.487 36.2739 732.68 35.906C730.03 35.3673 728.605 33.7693 728.587 31.3453C728.567 28.682 728.583 26.0175 728.583 23.353L728.581 23.3542Z" fill="var(--fill-0, #F3EDE3)"/>
<path d="M659.268 22.6339C659.268 18.5097 659.283 14.3855 659.25 10.2613C659.245 9.70698 659.434 9.60718 660.02 9.62041C661.57 9.65648 663.123 9.64686 664.673 9.62401C665.137 9.6168 665.304 9.69976 665.303 10.1398C665.286 18.4688 665.287 26.7966 665.303 35.1256C665.303 35.5645 665.141 35.6499 664.674 35.6439C663.077 35.6198 661.478 35.6114 659.882 35.6475C659.325 35.6607 659.254 35.4876 659.257 35.0667C659.273 30.9221 659.266 26.7786 659.266 22.6339H659.268Z" fill="var(--fill-0, #F3EDE3)"/>
<path d="M631.445 22.5702C631.445 18.4652 631.461 14.3603 631.427 10.2553C631.423 9.70457 631.607 9.60718 632.189 9.62041C633.763 9.65648 635.338 9.64566 636.913 9.62401C637.33 9.618 637.457 9.69856 637.455 10.0809C637.441 18.4508 637.441 26.8219 637.455 35.1918C637.455 35.5837 637.309 35.6463 636.905 35.6415C635.307 35.6222 633.709 35.6138 632.111 35.6451C631.577 35.6559 631.427 35.5429 631.43 35.0655C631.454 30.9004 631.444 26.7353 631.444 22.5702H631.445Z" fill="var(--fill-0, #F3EDE3)"/>
<path d="M662.287 8.43124C661.453 8.43124 660.619 8.41801 659.786 8.43725C659.414 8.44566 659.254 8.37592 659.259 8.014C659.283 6.63245 659.277 5.2509 659.262 3.86814C659.258 3.57115 659.377 3.4966 659.703 3.4978C661.417 3.50862 663.131 3.51223 664.844 3.4954C665.228 3.49179 665.303 3.61684 665.3 3.91504C665.286 5.27615 665.282 6.63846 665.301 8.00078C665.305 8.34226 665.184 8.44927 664.79 8.43845C663.957 8.4144 663.123 8.43124 662.289 8.43124H662.287Z" fill="var(--fill-0, #F3EDE3)"/>
<path d="M634.504 3.50382C635.314 3.50382 636.126 3.51824 636.935 3.4978C637.301 3.48818 637.463 3.5447 637.457 3.91143C637.43 5.27254 637.434 6.63606 637.455 7.99717C637.461 8.33264 637.359 8.44446 636.955 8.43965C635.264 8.42041 633.572 8.42522 631.882 8.43725C631.562 8.43965 631.436 8.37472 631.44 8.07533C631.456 6.67333 631.455 5.27134 631.44 3.86934C631.437 3.58438 631.526 3.49059 631.864 3.4978C632.744 3.51704 633.624 3.50382 634.504 3.50382Z" fill="var(--fill-0, #F3EDE3)"/>
<path d="M707.277 9.53504C707.286 9.19596 707.127 9.12862 706.787 9.15027C705.334 9.24045 704.215 9.87171 703.268 10.7723C702.837 11.1835 702.448 11.6272 702.028 12.0685C700.016 9.94986 697.467 8.99396 694.328 9.15868C690.935 9.33664 688.404 10.9274 687.325 13.7182C686.15 16.7566 686.234 19.8636 686.859 22.9706C687.265 24.987 688.379 26.6812 690.282 27.9726C689.447 28.5197 688.65 29.0343 687.984 29.6824C686.129 31.4872 686.299 33.8944 688.398 35.4936C688.629 35.6691 688.865 35.8411 689.113 36.0238C688.195 36.5998 687.319 37.1264 686.61 37.825C685.149 39.2655 685.184 41.2074 686.701 42.6021C687.431 43.2743 688.339 43.7011 689.321 44.0186C691.033 44.5705 692.821 44.7532 694.632 44.7905C697.425 44.8482 700.175 44.663 702.78 43.6783C707.487 41.8999 707.644 37.7697 706.2 35.1605C705.132 33.2343 703.023 32.597 700.767 32.2531C698.915 31.9717 697.037 31.9802 695.167 31.8888C694.358 31.8491 693.548 31.8022 692.789 31.5305C692.08 31.2768 691.813 30.8415 692.013 30.3148C692.31 29.5309 692.944 29.1365 693.637 29.2483C697.586 29.8856 701.44 28.7421 703.08 24.9534C703.595 23.7642 703.845 22.5305 704.008 21.274C704.275 19.2191 704.035 17.2003 703.478 15.2043C703.35 14.745 703.507 14.5755 703.987 14.3651C705.07 13.8889 706.096 14.1005 707.194 14.4204C707.322 12.7358 707.24 11.1354 707.277 9.53624V9.53504ZM692.452 36.9088C692.626 36.7441 692.846 36.8246 693.04 36.8415C695.202 37.029 697.364 37.2202 699.526 37.4186C700.661 37.5232 701.127 37.8094 701.245 38.4382C701.394 39.233 700.991 39.8799 700.051 40.2707C698.939 40.7336 697.738 40.7853 696.385 40.7853C695.373 40.7661 694.218 40.7192 693.1 40.4294C692.303 40.2226 691.54 39.9328 691.365 39.1356C691.161 38.2074 691.785 37.54 692.454 36.9088H692.452ZM698.345 20.8448C698.291 21.583 698.194 22.3129 697.905 23.0187C697.485 24.0419 696.602 24.4411 695.406 24.5025C694.226 24.5638 693.395 24.1502 692.898 23.2387C692.23 22.0123 692.17 20.6969 692.188 19.373C692.178 18.2115 692.258 17.056 692.626 15.933C693.042 14.6621 693.87 14.0669 695.195 14.0392C696.509 14.0116 697.397 14.5767 697.892 15.8103C698.551 17.4516 698.47 19.1494 698.345 20.8472V20.8448Z" fill="var(--fill-0, #F3EDE3)"/>
<path d="M713.825 24.0624C717.647 24.0876 721.469 24.0756 725.291 24.0756C725.909 24.0756 726.218 23.8183 726.218 23.3037C726.218 21.6215 726.214 19.9394 726.219 18.2572C726.222 17.4336 726.155 16.6159 725.959 15.8115C725.249 12.8945 723.468 10.6689 720.131 9.67572C716.628 8.63324 713.255 8.94225 710.371 11.1114C708.184 12.7551 707.326 14.9903 707.195 17.424C707.102 19.1614 707.177 20.9061 707.177 22.6484C707.168 24.4496 707.04 26.2532 707.2 28.0519C707.39 30.2006 708.132 32.175 709.884 33.7681C712.229 35.9024 715.202 36.3677 718.427 36.0286C721.212 35.7353 723.411 34.6194 724.797 32.4539C725.699 31.0447 726.045 29.5032 726.193 27.9137C726.228 27.5457 726.006 27.5806 725.744 27.5806C724.214 27.5818 722.687 27.5806 721.157 27.5806C720.534 27.5806 720.19 27.8499 720.127 28.3886C719.949 29.9205 718.911 30.975 717.386 31.1734C715.228 31.4547 713.667 30.4796 713.303 28.6135C713.047 27.3004 713.241 25.9742 713.164 24.6564C713.137 24.2067 713.255 24.0576 713.823 24.0612L713.825 24.0624ZM713.191 18.7045C713.24 18.048 713.168 17.3903 713.287 16.7326C713.6 15.0192 714.729 14.0945 716.581 14.0801C718.581 14.0645 719.769 14.9266 720.094 16.6544C720.232 17.3867 720.181 18.1286 720.2 18.8668C720.206 19.1927 720.009 19.2119 719.721 19.2095C718.705 19.2023 717.687 19.2071 716.67 19.2071C715.699 19.2071 714.728 19.1843 713.759 19.2167C713.28 19.2336 713.162 19.0857 713.19 18.7045H713.191Z" fill="var(--fill-0, #F3EDE3)"/>
</g>
<g id="Vector_4">
<path d="M869.368 25.2311L860.533 4.70554H868.374L873.347 17.5972L878.32 4.70554H885.517L876.682 25.2311V40.0944H869.368V25.2311Z" fill="var(--fill-0, #F3EDE3)"/>
<path d="M884.756 31.045V13.755C884.756 7.68833 888.676 4.2 895.815 4.2C902.953 4.2 906.931 7.68833 906.931 13.755V31.045C906.931 37.0611 903.011 40.6 895.815 40.6C888.618 40.6 884.756 37.0611 884.756 31.045ZM899.618 31.3483V13.4517C899.618 10.9744 898.213 9.81167 895.815 9.81167C893.416 9.81167 892.07 10.9744 892.07 13.4517V31.3483C892.07 33.775 893.416 34.9883 895.815 34.9883C898.213 34.9883 899.618 33.775 899.618 31.3483Z" fill="var(--fill-0, #F3EDE3)"/>
<path d="M909.389 31.045V4.70554H916.702V31.4494C916.702 33.9267 917.99 34.9883 920.389 34.9883C922.787 34.9883 924.133 33.9267 924.133 31.4494V4.70554H931.154V31.045C931.154 37.0611 927.41 40.6 920.272 40.6C913.133 40.6 909.389 37.0611 909.389 31.045Z" fill="var(--fill-0, #F3EDE3)"/>
<path d="M934.195 4.70554H945.019C952.45 4.70554 955.843 7.4861 955.843 13.2494V15.0189C955.843 18.7094 954.322 21.035 951.104 22.1472V22.2989C954.556 23.1583 955.902 25.7872 955.902 30.2867V35.4939C955.902 37.3139 956.019 38.6789 956.721 40.0944H949.29C948.881 39.1339 948.647 38.6283 948.647 35.4433V29.8822C948.647 26.5455 947.418 25.4333 944.025 25.4333H941.509V40.0944H934.195V4.70554ZM944.2 19.8217C947.067 19.8217 948.53 18.76 948.53 15.9794V13.9067C948.53 11.4294 947.418 10.3172 944.902 10.3172H941.509V19.8217H944.2Z" fill="var(--fill-0, #F3EDE3)"/>
<path d="M957.599 31.2978V29.4778H964.503V31.5C964.503 33.8256 965.79 35.0894 968.306 35.0894C970.588 35.0894 972.109 33.9267 972.109 31.4494C972.109 28.4667 970.705 27.2028 965.849 24.4222C959.647 20.8833 957.716 17.9006 957.716 13.4011C957.716 7.73889 961.46 4.2 968.54 4.2C975.62 4.2 979.13 7.73889 979.13 13.5022V14.7661H972.226V13.3506C972.226 10.9744 971.056 9.71056 968.599 9.71056C966.317 9.71056 964.971 10.8733 964.971 13.1989C964.971 15.8278 966.492 17.1422 971.349 19.8722C977.668 23.4111 979.423 26.4444 979.423 31.1461C979.423 37.0106 975.561 40.6 968.365 40.6C961.168 40.6 957.599 37.0106 957.599 31.2978Z" fill="var(--fill-0, #F3EDE3)"/>
<path d="M987.109 10.2713H979.503V4.65959H1002.09V10.2713H994.423V40.0485H987.109V10.2713Z" fill="var(--fill-0, #F3EDE3)"/>
<path d="M1002.89 31.045V13.755C1002.89 7.68833 1006.81 4.2 1013.94 4.2C1021.08 4.2 1025.06 7.68833 1025.06 13.755V31.045C1025.06 37.0611 1021.14 40.6 1013.94 40.6C1006.75 40.6 1002.89 37.0611 1002.89 31.045ZM1017.75 31.3483V13.4517C1017.75 10.9744 1016.34 9.81167 1013.94 9.81167C1011.54 9.81167 1010.2 10.9744 1010.2 13.4517V31.3483C1010.2 33.775 1011.54 34.9883 1013.94 34.9883C1016.34 34.9883 1017.75 33.775 1017.75 31.3483Z" fill="var(--fill-0, #F3EDE3)"/>
<path d="M1027.75 4.70554H1038.58C1046.01 4.70554 1049.4 7.4861 1049.4 13.2494V15.0189C1049.4 18.7094 1047.88 21.035 1044.66 22.1472V22.2989C1048.11 23.1583 1049.46 25.7872 1049.46 30.2867V35.4939C1049.46 37.3139 1049.58 38.6789 1050.28 40.0944H1042.85C1042.44 39.1339 1042.2 38.6283 1042.2 35.4433V29.8822C1042.2 26.5455 1040.97 25.4333 1037.58 25.4333H1035.07V40.0944H1027.75V4.70554ZM1037.76 19.8217C1040.62 19.8217 1042.09 18.76 1042.09 15.9794V13.9067C1042.09 11.4294 1040.97 10.3172 1038.46 10.3172H1035.07V19.8217H1037.76Z" fill="var(--fill-0, #F3EDE3)"/>
<path d="M1058.12 25.2311L1049.28 4.70554H1057.12L1062.1 17.5972L1067.07 4.70554H1074.27L1065.43 25.2311V40.0944H1058.12V25.2311Z" fill="var(--fill-0, #F3EDE3)"/>
</g>
<g id="Vector_5">
<path d="M1226.2 3.89562C1216.36 3.95643 1208.3 13.4107 1208.3 21.657C1208.3 30.3348 1214.21 40.9204 1226.2 40.886C1238.2 40.8517 1244.43 29.4554 1244.43 21.657C1244.43 13.043 1236.05 3.8348 1226.2 3.89562ZM1226.2 4.21906C1234.44 4.21906 1236.67 12.0821 1236.67 21.657C1236.67 34.2908 1233.99 40.5238 1226.2 40.5119C1218.42 40.5 1215.89 35.3986 1215.89 21.657C1215.89 13.0489 1217.96 4.21906 1226.2 4.21906Z" fill="var(--fill-0, #F3EDE3)"/>
<path d="M1247.68 21.8901C1247.63 12.5071 1256.33 4.19562 1263.68 3.78325C1266.34 3.62057 1269.76 4.6721 1271.75 5.42117C1273.2 5.96511 1276.16 5.17778 1276.68 3.73333H1276.97V16.5147H1276.68C1276.68 15.9698 1273.94 4.1046 1263.68 4.1046C1256.11 4.1046 1255.37 15.6161 1255.37 21.8901C1255.37 28.1641 1255.6 40.5846 1264.44 40.5846C1268.72 40.5846 1271.89 38.9654 1272.71 35.6898V25.7298H1269.12V25.3055H1283.06V25.7298H1279.62V40.2913H1279.34C1279.34 40.2913 1278.78 38.1902 1275.94 38.1972C1272.32 38.2062 1268.9 40.9267 1264.73 40.8936C1253.72 40.806 1247.72 31.2731 1247.68 21.8901Z" fill="var(--fill-0, #F3EDE3)"/>
<path d="M1181.27 5.1546H1176.93V4.73316H1192.14V5.1546H1188.32L1199.18 30.6395C1202.58 21.6051 1205.21 14.9268 1208.75 5.1546H1204.98V4.73316H1213.01V5.1546H1209.35L1196.15 40.711L1181.27 5.1546Z" fill="var(--fill-0, #F3EDE3)"/>
<path d="M1285.18 32.0058L1285.12 5.11367H1280.99V4.71084H1296.2V5.11367H1292.08L1292.17 34.5995C1293.08 37.9759 1294.71 40.5378 1300.26 40.5759C1305.81 40.6141 1309.58 37.7388 1310.98 33.8095V5.11367H1306.26L1306.26 4.72271H1344.94L1345.02 17.632H1344.64C1343.93 9.29696 1340.2 6.1469 1333.69 5.22792C1331.45 4.9117 1329.1 5.14612 1326.13 5.12616V21.6019C1328.72 21.7745 1331.47 21.6333 1333.33 20.2552C1335.02 19.002 1335.5 16.1065 1335.62 14.9303H1335.95V29.2755H1335.6C1335.49 29.2755 1335.36 25.6756 1333.33 23.9677C1331.29 22.2486 1328.7 21.8259 1326.13 22.2355V39.8352C1329.76 39.8352 1332.64 40.1004 1335.15 39.5062C1342.78 37.7 1345.46 32.1419 1345.44 26.5674H1345.87V40.2518H1315.53V39.8352H1318.96V5.11367H1311.55V33.8095C1310.71 36.5552 1307.64 41.0975 1299.77 41.0665C1292.46 41.0377 1285.2 38.1884 1285.18 32.0058Z" fill="var(--fill-0, #F3EDE3)"/>
</g>
</g>
</svg>
