<svg viewBox="0 0 198 189" fill="none" xmlns="http://www.w3.org/2000/svg" preserveAspectRatio="xMidYMid meet" overflow="visible" style="display: block;">
<path id="Vector" d="M6.81585 182.349L6.00958 181.613L5.20331 180.811L4.53141 180.075L3.85952 179.206L2.78449 177.535M6.81585 182.349L7.75699 183.017L8.69764 183.619L9.70548 184.287L10.7803 184.822L11.9226 185.357L13.0648 185.825L14.2735 186.227L15.483 186.627L18.0362 187.229L20.5894 187.63M6.81585 182.349L7.75607 183.017M2.78449 177.535L1.91059 175.796L1.77642 175.462L1.7095 175.396L1.57521 174.861M2.78449 177.535L1.9115 175.797L1.57521 174.861M0.835729 172.187L1.0373 173.056L1.23887 173.992L1.57521 174.861M0.835729 172.187L0.634379 171.317L0.566708 170.381M0.835729 172.187L0.701087 171.317L0.566708 170.381M0.566708 170.381V170.114L0.5 168.71M0.566708 170.381L0.5 168.71M43.6359 183.017L42.6953 183.619L41.6874 184.287M41.6874 184.287L40.8137 184.688M41.6874 184.287L40.6125 184.823L39.47 185.357L38.3278 185.825L35.9087 186.628L33.3555 187.229L30.8021 187.63L28.1821 187.897L25.696 187.964L23.1425 187.897M48.6074 177.535L47.5324 179.206M48.6074 177.535L49.0779 176.666L49.4811 175.797L49.8173 174.861L50.1533 173.992L50.3548 173.056L50.5564 172.187L50.6907 171.317L50.8251 170.381L50.8926 169.512L50.8921 168.71M48.6074 177.535L48.0704 178.404L47.5324 179.206M47.5324 179.206L46.8605 180.075L46.1214 180.811L45.3823 181.613L44.5089 182.349L43.6353 183.018L42.6946 183.619M0.5 168.71V163.294V40.2126M50.8921 168.71L50.8924 150.926M50.8921 168.71V147.048V134.012M2.38095 176.866V176.799M20.5901 187.631L23.1433 187.898M9.70465 184.288L11.9219 185.358L13.0641 185.826M50.8924 150.926L50.8921 134.012M50.8924 150.926L52.7734 151.729L54.7219 152.531L56.7376 153.333L58.5517 154.069L62.4487 155.606L64.4644 156.342L66.3457 157.01L74.2068 159.885L77.9695 161.222L81.8664 162.559L89.7948 165.367L91.8777 166.036L97.7231 168.041L105.584 170.716L113.513 173.457L122.18 176.466L130.78 179.341L135.013 180.745L139.515 182.149L143.949 183.486L148.25 184.689L152.482 185.759L153.49 186.026L154.633 186.294L156.917 186.762L159.134 187.23L161.351 187.631L162.427 187.765L163.569 187.898L165.92 188.233L168.138 188.366L170.288 188.5H172.639L174.924 188.366L177.074 188.099L178.216 187.898L179.358 187.631L181.508 186.962L182.516 186.561L183.524 186.093L185.002 185.224L186.413 184.288L187.623 183.152L188.832 181.948L189.84 180.611L190.78 179.207L191.654 177.669L192.393 176.198L193.065 174.661L193.67 173.056L194.207 171.385L194.677 169.78L195.484 166.437L195.82 164.766L196.089 163.161L196.559 159.484L196.895 155.673L197.298 149.857L197.366 147.918L197.5 140.296V125.655L197.366 118.902L197.298 117.231L197.231 115.493L196.962 111.949L196.627 108.54L196.223 105.197L195.955 103.592L195.753 102.79L195.619 101.921L194.745 98.5781L194.275 96.9735L193.065 93.7644L192.326 92.2267L191.52 90.689L190.647 89.2182L189.639 87.8142L188.564 86.4771L187.489 85.2737L186.212 84.0703L184.936 82.9337L183.525 81.9309L181.71 80.7947L179.761 79.725L177.611 78.7222L175.663 77.9199L173.513 77.1845L171.363 76.5159L169.213 75.9811L167.063 75.5131L164.845 75.0451L162.561 74.6439L158.261 73.9754L153.759 73.5074L149.459 73.1063L145.024 72.8388L135.954 72.4377H133.669L131.452 72.3708L122.516 72.304H105.584L97.656 72.3708L93.759 72.4377H91.7433L85.6962 72.6383L81.7321 72.8388L77.8351 73.1063L74.0053 73.4405L72.0568 73.5742L70.0411 73.8417L66.2113 74.3765L64.2628 74.6439L62.2471 75.0451L58.4173 75.8474L56.536 76.3153L54.5875 76.8502L52.7062 77.4519L50.8921 78.1205M50.8921 40.1458L50.8249 38.8752L50.6905 37.6049L50.489 36.3347L50.2202 35.0644L49.8171 33.861L49.2795 32.6576L48.742 31.521L48.0701 30.3845L47.3311 29.3148L45.5841 27.4428L44.6435 26.5737L43.5684 25.7714L41.4184 24.4343L40.2762 23.8326M50.8921 40.1458L50.7577 37.9392L50.3546 35.733L50.0858 34.6633L49.6827 33.5936L49.2795 32.5907L48.8092 31.5879L47.5998 29.7159L46.9279 28.8468L46.1888 28.0445L45.3826 27.2422L44.5763 26.5068L42.7622 25.2366L40.8137 24.1L38.798 23.164L36.6479 22.4286L34.5651 21.8937L32.3478 21.4258L30.1306 21.0915L27.9133 20.8909H23.4788L21.2615 21.0915L19.0443 21.4258L16.827 21.8937L14.677 22.4286L12.5941 23.164L10.5784 24.0999M50.8921 40.1458V56.1908V134.012M50.8921 40.1458V134.012M0.5 40.2126V40.1458M0.5 40.2126V163.295L0.567189 163.294H0.835947L1.37346 163.361H3.25477L3.92666 163.428H4.66575L6.27829 163.361L8.1596 163.294L10.1753 163.094L12.3925 162.826L14.6098 162.425L16.8942 161.891L19.1115 161.155L21.3959 160.286L23.6132 159.216L25.696 157.946L26.8383 157.077L27.9805 156.141L29.0555 155.205L30.1306 154.136L31.0712 152.999L31.9447 151.862L32.7509 150.659L33.49 149.389L34.2963 147.851L35.0353 146.247L35.64 144.642L36.8494 141.299L37.7229 139.761L38.7307 138.357L39.9401 137.087L41.2839 136.084L42.6949 135.282L44.0387 134.613L45.3825 134.212L46.6591 133.944L47.8013 133.878L48.7419 133.811L49.481 133.878L50.0857 133.944H50.5561L50.8248 134.011L50.8921 134.012M0.5 40.1458V38.8751L0.634379 37.6717L0.835947 36.4014L1.50784 33.9946L1.97817 32.858L2.51568 31.7215L3.12039 30.6518M0.5 40.1458L0.634379 37.9392L1.03752 35.733L1.30627 34.6633L1.64222 33.5936L2.58287 31.5879L3.12039 30.6518M10.5784 24.0999L9.4362 24.7016L8.42836 25.3701L7.35332 26.1056L6.41267 26.841L5.47202 27.7101L4.59856 28.6461L3.85947 29.5821L3.12039 30.6518M10.5784 24.0999L8.62992 25.2366L6.81581 26.5068L6.00954 27.2422L5.20326 28.0445L4.46418 28.8468L3.79228 29.7159L3.12039 30.6518M50.8921 134.012L52.0343 134.279L53.1766 134.68L56.6032 135.95L60.1643 137.288L67.4879 139.895L75.0132 142.502L82.6056 144.976L90.2652 147.383L97.9919 149.656L105.719 151.795L113.513 153.801L122.449 155.874L131.385 157.746L140.388 159.417L149.392 160.754L153.894 161.356L158.328 161.891L162.763 162.359L167.13 162.693L171.296 162.96L173.311 163.094L175.26 163.161L178.888 163.295L180.501 163.361L183.793 163.362L185.271 163.429H186.614L187.824 163.362H190.646L191.385 163.295H192.662L193.602 163.228H194.341L194.879 163.162H196.088M171.027 76.4482L172.573 75.0442L174.118 73.5734L175.529 72.0357L176.873 70.3643L178.082 68.6929L179.224 66.8878L180.299 65.0826L181.24 63.2107L182.046 61.2718L182.785 59.2662L183.457 57.2605L183.928 55.2548L184.331 53.1822L184.599 51.1097L184.801 48.9703L184.867 46.8983V39.0761L184.801 36.9366L184.599 34.7972L184.33 32.6578L183.927 30.5184L182.718 26.3733L181.911 24.3676L181.038 22.362L180.03 20.49L178.955 18.618L177.746 16.8129L176.469 15.0746L175.058 13.4032L173.58 11.8655L172.841 11.1301L172.035 10.3947L170.355 8.99073L168.608 7.65361L166.794 6.4502L164.98 5.3805L163.031 4.37766L161.083 3.50853L159.067 2.70625L156.984 2.03769L154.901 1.50284L152.751 1.03485L150.601 0.767425L148.451 0.566856L146.301 0.5L144.084 0.566856L141.934 0.700568L140.859 0.834281L140.59 0.901137L140.187 0.967993L139.448 1.03485L136.425 1.7035L55.7301 22.362L53.9832 22.8301L53.1769 23.1644H52.9753L52.6394 23.2981L51.8331 23.6992L51.2284 23.9666L50.019 24.5683L48.8768 25.17L47.7345 25.9055L46.6595 26.6409L45.6517 27.4432" stroke="var(--stroke-0, #4B4A4A)" stroke-linecap="round" stroke-linejoin="round"/>
</svg>
