<svg preserveAspectRatio="none" width="100%" height="100%" overflow="visible" style="display: block;" viewBox="0 0 36 30" fill="none" xmlns="http://www.w3.org/2000/svg">
<path id="Vector" d="M35.684 7.66152C34.4939 2.89719 30.8154 0.0459837 25.731 0.00293066C23.3005 -0.0176863 21.1587 0.837917 19.1326 2.03673C18.7389 2.27019 18.3577 2.52366 17.9866 2.75772C17.5318 2.46908 17.1311 2.20106 16.7172 1.95427C13.9319 0.297025 10.9686 -0.447004 7.69831 0.276409C2.19628 1.49342 0.0569871 6.15891 0.0016334 9.84692C-0.0663007 14.3523 1.98933 18.0804 5.32502 21.1086C9.13751 24.5692 13.5186 27.3113 17.9897 30C21.7047 27.7946 25.2656 25.4582 28.6283 22.8423C30.8544 21.1105 32.8396 19.1846 34.1568 16.7021C35.6695 13.8502 36.491 10.8923 35.684 7.66152ZM31.2142 16.3431C29.9926 18.3035 28.2421 19.774 26.4167 21.1808C24.5975 22.5821 22.7099 23.8919 20.78 25.1465C19.8793 25.7323 18.9647 26.2993 18.0079 26.905C17.5506 26.6219 17.0952 26.3447 16.6449 26.0609C13.4865 24.0684 10.3949 21.9867 7.5788 19.5539C5.07216 17.3879 3.4323 14.7362 2.82153 11.5139C2.20383 8.25639 3.92231 4.6466 6.79819 3.35379C9.00856 2.35993 11.2554 2.3854 13.5004 3.30346C14.9673 3.90317 16.2656 4.74908 17.4645 5.749C17.6198 5.87876 17.7783 6.0055 17.9715 6.16255C18.6728 5.63379 19.3138 5.10502 20.0019 4.64053C21.6707 3.5163 23.4798 2.62917 25.5505 2.62674C30.0071 2.62068 32.5559 5.06925 33.1912 9.15989C33.5994 11.7886 32.5917 14.1316 31.2142 16.3431Z" fill="var(--fill-0, #CCBCA6)"/>
</svg>
