<svg preserveAspectRatio="xMidYMid meet" overflow="visible" style="display: block;" viewBox="0 0 18.7761 17.9955" fill="none" xmlns="http://www.w3.org/2000/svg">
<g id="g242">
<path id="path244" d="M0 0.000227865L4.99486 17.9955H12.9804C15.476 17.9955 17.1432 17.6004 17.9913 16.7863C18.8334 15.9786 18.9956 14.6604 18.488 12.8075C18.181 11.7159 17.7144 10.7997 17.0734 10.0759C16.4376 9.35065 15.599 8.77721 14.5664 8.35552C15.4425 8.14489 15.9998 7.72669 16.2496 7.09961C16.4982 6.47253 16.4694 5.55807 16.1677 4.35928L15.5602 1.84572L15.5585 1.77769C15.3832 1.07386 15.435 0.697084 15.7207 0.666558L15.5367 0.000227865H10.1345C10.1528 0.423661 10.1864 0.802179 10.2221 1.12008C10.2614 1.4454 10.3098 1.69745 10.3578 1.87057L10.8614 3.66766C11.1152 4.60218 11.1309 5.25412 10.8955 5.62958C10.6578 6.01508 10.1258 6.20477 9.28588 6.20477H7.01565L5.28442 0.000227865H0ZM8.13899 10.2599H10.5706C11.4227 10.2599 12.0515 10.3815 12.4392 10.6332C12.8286 10.887 13.1177 11.3156 13.2874 11.9357C13.4631 12.5663 13.4199 13.0059 13.1679 13.2557C12.9162 13.5095 12.314 13.633 11.3673 13.633H9.07526L8.13899 10.2599Z" fill="var(--fill-0, #F3EDE3)"/>
</g>
</svg>
