<svg preserveAspectRatio="xMidYMid meet" overflow="visible" style="display: block;" viewBox="0 0 15.9136 13.6403" fill="none" xmlns="http://www.w3.org/2000/svg">
<g id="g246">
<path id="path248" d="M15.9134 13.6403L12.2312 0.361204H7.75657L8.30647 2.30656C7.51891 1.53295 6.71303 0.945551 5.90062 0.570086C5.09474 0.18808 4.24438 0.000130208 3.34911 0.000130208C2.60909 0.000130208 1.97372 0.134442 1.4622 0.400887C0.944569 0.66646 0.559074 1.07027 0.299607 1.60272C0.0693565 2.06889 -0.0309416 2.64452 0.0083056 3.33222C0.0497332 4.00901 0.288705 5.15067 0.731762 6.74934L2.64005 13.6403H7.53461L5.63025 6.78161C5.35203 5.77775 5.28574 5.07218 5.42136 4.68799C5.56265 4.30031 5.93986 4.10015 6.55212 4.10015C7.16874 4.10015 7.68724 4.32343 8.11547 4.77913C8.5498 5.23091 8.88515 5.90465 9.1372 6.80123L11.0259 13.6403H15.9134Z" fill="var(--fill-0, #F3EDE3)"/>
</g>
</svg>
