<svg preserveAspectRatio="xMidYMid meet" overflow="visible" style="display: block;" viewBox="0 0 15.4855 14.2312" fill="none" xmlns="http://www.w3.org/2000/svg">
<g id="g254">
<path id="path256" d="M8.31394 0.484244L8.36366 1.74539C7.57435 1.1545 6.77502 0.707953 5.97132 0.428862C5.17112 0.144538 4.31902 0.000195312 3.4063 0.000195312C2.02 0.000195312 1.05322 0.376968 0.494161 1.10609C-0.0579162 1.83653 -0.148621 2.8853 0.228152 4.22319C0.58879 5.54364 1.23026 6.51566 2.15562 7.13708C3.07575 7.76591 4.6125 8.21594 6.76848 8.50375C7.0419 8.54823 7.40821 8.58399 7.86696 8.63937C9.46083 8.82384 10.3557 9.24858 10.5484 9.94151C10.6487 10.3209 10.5877 10.6009 10.3522 10.7727C10.125 10.951 9.70024 11.0387 9.08711 11.0387C8.57821 11.0387 8.16873 10.9332 7.83295 10.7138C7.4976 10.4923 7.24729 10.1687 7.07766 9.71344H2.30564C2.73648 11.2083 3.61693 12.3378 4.93869 13.0931C6.25565 13.8614 7.99212 14.2312 10.1429 14.2312C11.1541 14.2312 12.0599 14.1366 12.8605 13.9312C13.6625 13.7345 14.2486 13.4541 14.6288 13.1149C15.0967 12.6914 15.3736 12.2087 15.4526 11.6749C15.5437 11.1425 15.4439 10.3793 15.1648 9.38071L13.1121 1.97738C13.0463 1.73492 13.0336 1.51863 13.0694 1.32195C13.1121 1.13444 13.1941 0.973962 13.3389 0.859273L13.2286 0.484244H8.31394ZM9.50357 6.41362C8.98376 6.20474 8.30828 6.00458 7.46882 5.78479C6.15055 5.43113 5.40878 4.9593 5.2483 4.37538C5.1371 3.99992 5.18202 3.7108 5.36561 3.49101C5.54658 3.28213 5.861 3.1766 6.30405 3.1766C7.11647 3.1766 7.76884 3.38199 8.25507 3.78755C8.74261 4.19834 9.10717 4.8433 9.36228 5.7329C9.40676 5.92216 9.44601 6.05822 9.4713 6.15982L9.50357 6.41362Z" fill="var(--fill-0, #F3EDE3)"/>
</g>
</svg>
