<svg preserveAspectRatio="xMidYMid meet" overflow="visible" style="display: block;" viewBox="0 0 17.3002 18.6168" fill="none" xmlns="http://www.w3.org/2000/svg">
<g id="g258">
<path id="path260" d="M0 0.105225L1.08628 4.03561H2.48696C2.95488 4.03561 3.32293 4.12806 3.5837 4.29639C3.84841 4.47126 4.02851 4.76605 4.13229 5.16288C4.18419 5.33775 4.21602 5.52177 4.23782 5.73066C4.25178 5.95218 4.25178 6.18636 4.23782 6.4576L3.49038 18.6168H8.44469L8.36794 10.5598L12.693 18.6168H17.3002L9.65394 5.40185C8.78614 3.92485 8.15557 2.91009 7.75525 2.35627C7.36016 1.80943 6.98513 1.38425 6.621 1.09644C6.14916 0.698294 5.62238 0.41615 5.05373 0.251748C4.48377 0.0838576 3.61597 0.000130208 2.44946 0.000130208C2.11368 0.000130208 1.72731 0.00667141 1.30955 0.0284754C0.894836 0.0446104 0.452215 0.0694669 0 0.105225Z" fill="var(--fill-0, #F3EDE3)"/>
</g>
</svg>
