<svg preserveAspectRatio="xMidYMid meet" overflow="visible" style="display: block;" viewBox="0 0 266.933 63.4667" fill="none" xmlns="http://www.w3.org/2000/svg">
<g id="Vector">
<path fill-rule="evenodd" clip-rule="evenodd" d="M79.2898 5.55795C77.4894 3.81107 75.3408 2.44773 72.8406 1.46794C70.3439 0.488151 67.601 0 64.619 0C61.6371 0 58.9047 0.488151 56.4291 1.46794C53.95 2.44773 51.812 3.81107 50.0115 5.55795C48.2111 7.30484 46.808 9.39692 45.7988 11.8377C44.9408 13.9123 44.452 16.1648 44.3254 18.5881C41.2309 20.1293 38.2067 22.5003 35.1684 25.7395C28.4976 32.8491 23.3847 33.407 20.3324 33.407C18.3561 33.407 16.5556 33.0723 14.931 32.3993C13.3029 31.7264 11.8998 30.7954 10.7183 29.6064C9.53672 28.4174 8.6154 26.9843 7.95782 25.3141C7.30024 23.644 6.96969 21.8308 6.96969 19.8713C6.96969 17.9117 7.29672 16.0497 7.95782 14.4005C8.6154 12.7512 9.53672 11.3286 10.7183 10.1396C11.8998 8.95061 13.3029 8.01963 14.931 7.34668C16.5556 6.67373 18.3596 6.339 20.3324 6.339C22.9662 6.339 25.3082 6.9457 27.3618 8.15213C29.4154 9.36205 31.0014 11.0601 32.1267 13.2498H39.6801C39.0225 11.2135 38.0836 9.38297 36.8634 7.74766C35.6432 6.11584 34.2014 4.72461 32.5346 3.57048C30.8678 2.41984 29.0005 1.53419 26.9293 0.920514C24.8581 0.306838 22.6603 0 20.3359 0C17.3539 0 14.6216 0.488151 12.146 1.46794C9.66683 2.44773 7.52881 3.81107 5.72836 5.55795C3.92792 7.30484 2.52484 9.39692 1.51561 11.8377C0.502858 14.2749 0 16.9528 0 19.8713C0 22.7897 0.502858 25.4571 1.51209 27.8769C2.51781 30.2968 3.9244 32.3888 5.72485 34.1567C7.52529 35.9245 9.66683 37.2948 12.1424 38.2746C14.6216 39.2543 17.3504 39.7425 20.3324 39.7425V39.753C23.9684 39.753 31.5324 39.753 40.2709 30.4397C42.0291 28.5673 43.6572 27.1587 45.1729 26.1126C45.3557 26.7158 45.5632 27.3016 45.8023 27.8769C46.808 30.2968 48.2146 32.3888 50.0151 34.1567C51.8155 35.9245 53.957 37.2948 56.4327 38.2746C58.9118 39.2543 61.6406 39.7425 64.6226 39.7425C67.6045 39.7425 70.2771 39.2439 72.7562 38.2432C75.2353 37.246 77.3839 35.8617 79.2054 34.0974C81.027 32.3331 82.4477 30.2305 83.4745 27.7898C84.5013 25.3525 85.0147 22.713 85.0147 19.8713C85.0147 17.0295 84.5118 14.2749 83.5026 11.8377C82.4969 9.4004 81.0903 7.30832 79.2898 5.55795ZM77.0217 25.2862C76.343 26.939 75.4147 28.3686 74.2331 29.5785C73.0516 30.7884 71.638 31.7298 69.9922 32.4028C68.3465 33.0757 66.5531 33.4105 64.619 33.4105C62.685 33.4105 60.8423 33.0757 59.2177 32.4028C57.5896 31.7298 56.1865 30.7989 55.005 29.6099C53.8234 28.4209 52.9021 26.9878 52.2445 25.3176C52.0019 24.7074 51.8085 24.0728 51.6537 23.4243C53.1553 23.2221 54.5197 23.3267 55.7786 23.5359C60.3993 24.2995 62.6252 26.9634 62.7201 27.0785L62.692 27.0436L68.2164 22.835C67.8296 22.3364 64.2322 17.9291 56.925 16.7227C55.1069 16.4228 53.3417 16.3496 51.6115 16.4995C51.7698 15.7743 51.9808 15.0734 52.248 14.404C52.9056 12.7547 53.8269 11.3321 55.0085 10.1431C56.19 8.95409 57.5931 8.02312 59.2212 7.35017C60.8458 6.67721 62.6498 6.34248 64.6226 6.34248C66.5953 6.34248 68.4063 6.6807 70.0555 7.35017C71.7013 8.02312 73.1149 8.95409 74.2964 10.1431C75.478 11.3356 76.3958 12.7547 77.0569 14.404C77.7145 16.0567 78.045 17.8803 78.045 19.8747C78.045 21.8692 77.7039 23.637 77.0287 25.2897H77.0217V25.2862Z" fill="var(--fill-0, #F3EDE3)"/>
<path fill-rule="evenodd" clip-rule="evenodd" d="M113.73 30.7884C111.831 29.6168 110.478 27.9746 109.665 25.8651C113.266 25.4048 116.104 24.0694 118.175 21.8622C120.246 19.6551 121.284 16.8029 121.284 13.3091C121.284 11.3495 120.943 9.59566 120.268 8.04055C119.589 6.48544 118.632 5.15 117.391 4.03771C116.15 2.92542 114.652 2.07116 112.89 1.47491C111.128 0.878673 109.141 0.582295 106.937 0.582295H91.0771V39.1742H98.0468V6.91083H106.933C109.219 6.91083 111.019 7.48615 112.334 8.64028C113.649 9.79092 114.311 11.346 114.311 13.3056C114.311 15.2652 113.632 16.8691 112.278 17.9988C110.921 19.1321 109.141 19.6969 106.933 19.6969H102.112V21.137C102.112 23.7869 102.558 26.2172 103.448 28.4244C104.338 30.6315 105.597 32.5353 107.225 34.1253C108.853 35.7187 110.787 36.9566 113.034 37.8422C115.281 38.7244 117.739 39.1672 120.412 39.1672H122.444V32.5423H120.7C117.95 32.5423 115.626 31.9565 113.73 30.7849V30.7884Z" fill="var(--fill-0, #F3EDE3)"/>
<path fill-rule="evenodd" clip-rule="evenodd" d="M153.607 27.9362L135.772 0.575321H128.51V39.1672H135.483V11.8063L153.316 39.1672H160.577V0.575321H153.607V27.9362Z" fill="var(--fill-0, #F3EDE3)"/>
<path fill-rule="evenodd" clip-rule="evenodd" d="M166.643 39.1672H193.945V32.8317H173.613V22.7513H191.913V16.4158H173.613V6.91083H193.945V0.575321H166.643V39.1672Z" fill="var(--fill-0, #F3EDE3)"/>
<path fill-rule="evenodd" clip-rule="evenodd" d="M222.664 30.7884C220.765 29.6168 219.411 27.9746 218.599 25.8651C222.2 25.4048 225.038 24.0694 227.109 21.8622C229.18 19.6551 230.218 16.8029 230.218 13.3091C230.218 11.3495 229.877 9.59566 229.201 8.04055C228.523 6.48544 227.566 5.15 226.325 4.03771C225.084 2.92542 223.586 2.07116 221.824 1.47491C220.062 0.878673 218.075 0.582295 215.87 0.582295H200.011V39.1742H206.981V6.91083H215.867C218.153 6.91083 219.953 7.48615 221.268 8.64028C222.583 9.79092 223.244 11.346 223.244 13.3056C223.244 15.2652 222.566 16.8691 221.212 17.9988C219.855 19.1321 218.075 19.6969 215.867 19.6969H211.046V21.137C211.046 23.7869 211.492 26.2172 212.382 28.4244C213.272 30.6315 214.531 32.5353 216.159 34.1253C217.787 35.7187 219.721 36.9566 221.968 37.8422C224.215 38.7244 226.673 39.1672 229.346 39.1672H231.378V32.5423H229.634C226.884 32.5423 224.56 31.9565 222.664 30.7849V30.7884Z" fill="var(--fill-0, #F3EDE3)"/>
<path fill-rule="evenodd" clip-rule="evenodd" d="M266.177 23.759C265.674 22.5108 264.88 21.4159 263.797 20.4745C262.714 19.533 261.317 18.7276 259.616 18.0546C257.91 17.3817 255.86 16.8168 253.458 16.3566C250.244 15.7045 247.941 14.9549 246.545 14.1111C245.149 13.2673 244.452 12.1724 244.452 10.8265C244.452 9.4806 245.092 8.39969 246.369 7.57332C247.645 6.74695 249.312 6.33551 251.366 6.33551C253.419 6.33551 255.22 6.84458 256.535 7.86273C257.85 8.88087 258.511 10.1954 258.511 11.8098H265.481C265.481 10.0803 265.133 8.49732 264.437 7.05728C263.74 5.61723 262.77 4.36896 261.532 3.31246C260.291 2.25596 258.81 1.44005 257.087 0.864726C255.364 0.289404 253.476 0 251.422 0C249.368 0 247.491 0.289404 245.789 0.864726C244.083 1.44005 242.613 2.2455 241.375 3.28456C240.134 4.32014 239.178 5.55098 238.499 6.97011C237.82 8.39272 237.483 9.96527 237.483 11.6947C237.483 14.7282 238.576 17.1271 240.764 18.8949C242.951 20.6628 246.464 21.9877 251.306 22.8699C254.365 23.4069 256.574 24.1182 257.928 25.0003C259.281 25.8825 259.96 27.0366 259.96 28.4557C259.96 29.8749 259.236 31.1057 257.783 32.0262C256.331 32.9467 254.443 33.4105 252.118 33.4105C250.8 33.4105 249.583 33.2361 248.458 32.891C247.332 32.5458 246.365 32.075 245.553 31.4788C244.741 30.8826 244.111 30.1643 243.665 29.3205C243.218 28.4767 242.997 27.5736 242.997 26.6147H236.027C236.027 28.6127 236.396 30.4258 237.131 32.0576C237.866 33.6894 238.931 35.0737 240.328 36.2034C241.72 37.3366 243.415 38.2118 245.409 38.8255C247.403 39.4392 249.639 39.746 252.118 39.746C256.802 39.746 260.445 38.7209 263.041 36.6637C265.636 34.6099 266.933 31.7403 266.933 28.0513C266.933 26.4369 266.68 25.0073 266.177 23.759Z" fill="var(--fill-0, #F3EDE3)"/>
<path fill-rule="evenodd" clip-rule="evenodd" d="M87.9123 63.4632V53.878H89.136V63.4632H87.9123Z" fill="white"/>
<path fill-rule="evenodd" clip-rule="evenodd" d="M106.244 56.12V63.4667H105.02V53.8815H106.054L111.965 61.3746V53.8954H113.192V63.4667H112.074L106.247 56.12H106.244Z" fill="white"/>
<path fill-rule="evenodd" clip-rule="evenodd" d="M129.069 63.4632V53.878H132.421C133.454 53.878 134.319 54.0907 135.016 54.5195C135.708 54.9484 136.229 55.5237 136.573 56.249C136.918 56.9743 137.09 57.7762 137.09 58.6584C137.09 59.6312 136.901 60.475 136.517 61.1968C136.137 61.9185 135.596 62.4764 134.896 62.8704C134.196 63.2679 133.37 63.4632 132.417 63.4632H129.066H129.069ZM135.849 58.6584C135.849 57.9401 135.715 57.2985 135.448 56.7406C135.181 56.1827 134.791 55.7469 134.284 55.4296C133.774 55.1158 133.155 54.9589 132.417 54.9589H130.293V62.3858H132.417C133.162 62.3858 133.788 62.2219 134.295 61.8941C134.801 61.5664 135.188 61.12 135.452 60.5587C135.715 59.9973 135.846 59.3627 135.846 58.6619H135.849V58.6584Z" fill="white"/>
<path fill-rule="evenodd" clip-rule="evenodd" d="M152.967 63.4632V53.878H154.191V63.4632H152.967Z" fill="white"/>
<path fill-rule="evenodd" clip-rule="evenodd" d="M175.069 53.878L179.018 63.4632H177.709L176.626 60.6563H172.466L171.376 63.4632H170.068L174.031 53.878H175.069ZM176.264 59.7114L174.555 55.2832L172.839 59.7114H176.268H176.264Z" fill="white"/>
<path fill-rule="evenodd" clip-rule="evenodd" d="M87.9123 63.4632V53.878H89.136V63.4632H87.9123Z" fill="var(--fill-0, #F3EDE3)"/>
<path fill-rule="evenodd" clip-rule="evenodd" d="M106.244 56.12V63.4667H105.02V53.8815H106.054L111.965 61.3746V53.8954H113.192V63.4667H112.074L106.247 56.12H106.244Z" fill="var(--fill-0, #F3EDE3)"/>
<path fill-rule="evenodd" clip-rule="evenodd" d="M129.069 63.4632V53.878H132.421C133.454 53.878 134.319 54.0907 135.016 54.5195C135.708 54.9484 136.229 55.5237 136.573 56.249C136.918 56.9743 137.09 57.7762 137.09 58.6584C137.09 59.6312 136.901 60.475 136.517 61.1968C136.137 61.9185 135.596 62.4764 134.896 62.8704C134.196 63.2679 133.37 63.4632 132.417 63.4632H129.066H129.069ZM135.849 58.6584C135.849 57.9401 135.715 57.2985 135.448 56.7406C135.181 56.1827 134.791 55.7469 134.284 55.4296C133.774 55.1158 133.155 54.9589 132.417 54.9589H130.293V62.3858H132.417C133.162 62.3858 133.788 62.2219 134.295 61.8941C134.801 61.5664 135.188 61.12 135.452 60.5587C135.715 59.9973 135.846 59.3627 135.846 58.6619H135.849V58.6584Z" fill="var(--fill-0, #F3EDE3)"/>
<path fill-rule="evenodd" clip-rule="evenodd" d="M152.967 63.4632V53.878H154.191V63.4632H152.967Z" fill="var(--fill-0, #F3EDE3)"/>
<path fill-rule="evenodd" clip-rule="evenodd" d="M175.069 53.878L179.018 63.4632H177.709L176.626 60.6563H172.466L171.376 63.4632H170.068L174.031 53.878H175.069ZM176.264 59.7114L174.555 55.2832L172.839 59.7114H176.268H176.264Z" fill="var(--fill-0, #F3EDE3)"/>
</g>
</svg>
