<svg preserveAspectRatio="xMidYMid meet" overflow="visible" style="display: block;" viewBox="0 0 28.9333 23.3333" fill="none" xmlns="http://www.w3.org/2000/svg">
<g id="Vector">
<path d="M5.22086 23.2832V21.7654C5.22086 21.1848 4.87338 20.8046 4.27687 20.8046C3.97862 20.8046 3.65431 20.9048 3.43134 21.2349C3.25761 20.9579 3.00858 20.8046 2.63504 20.8046C2.38602 20.8046 2.13699 20.8812 1.94009 21.1583V20.8547H1.41887V23.2832H1.94009V21.9422C1.94009 21.5119 2.16305 21.3086 2.51053 21.3086C2.85801 21.3086 3.03175 21.5355 3.03175 21.9422V23.2832H3.55296V21.9422C3.55296 21.5119 3.80199 21.3086 4.12341 21.3086C4.47088 21.3086 4.64462 21.5355 4.64462 21.9422V23.2832H5.22086ZM12.9522 20.8547H12.1067V20.1208H11.5855V20.8547H11.1135V21.3351H11.5855V22.4492C11.5855 23.0062 11.8085 23.3333 12.405 23.3333C12.6279 23.3333 12.877 23.2567 13.0507 23.1565L12.9001 22.6997C12.7495 22.7999 12.5758 22.8264 12.4513 22.8264C12.2023 22.8264 12.1038 22.6732 12.1038 22.4226V21.3351H12.9493V20.8547H12.9522ZM17.3768 20.8017C17.0785 20.8017 16.8787 20.9549 16.7542 21.1553V20.8518H16.233V23.2803H16.7542V21.9128C16.7542 21.509 16.928 21.2791 17.2523 21.2791C17.3507 21.2791 17.4752 21.3056 17.5766 21.3292L17.7272 20.8223C17.6229 20.8017 17.4752 20.8017 17.3768 20.8017ZM10.6907 21.0551C10.4417 20.8783 10.0942 20.8017 9.7207 20.8017C9.12419 20.8017 8.72749 21.1052 8.72749 21.5856C8.72749 21.9894 9.02574 22.2193 9.54696 22.293L9.79598 22.3195C10.0682 22.3696 10.2187 22.4462 10.2187 22.5729C10.2187 22.7498 10.0189 22.8765 9.67147 22.8765C9.32399 22.8765 9.04891 22.7498 8.87517 22.623L8.62614 23.0268C8.89833 23.2302 9.27187 23.3304 9.64541 23.3304C10.3404 23.3304 10.74 23.0003 10.74 22.5464C10.74 22.1161 10.4157 21.8892 9.9205 21.8126L9.67147 21.786C9.44851 21.7595 9.27477 21.7094 9.27477 21.5591C9.27477 21.3823 9.44851 21.2821 9.72359 21.2821C10.0218 21.2821 10.3201 21.4088 10.4707 21.4854L10.6907 21.0551ZM24.558 20.8017C24.2598 20.8017 24.06 20.9549 23.9354 21.1553V20.8518H23.4142V23.2803H23.9354V21.9128C23.9354 21.509 24.1092 21.2791 24.4335 21.2791C24.5319 21.2791 24.6565 21.3056 24.7578 21.3292L24.9084 20.8282C24.807 20.8017 24.6594 20.8017 24.558 20.8017ZM17.898 22.069C17.898 22.8028 18.3961 23.3333 19.1663 23.3333C19.5138 23.3333 19.7628 23.2567 20.0118 23.0563L19.7628 22.626C19.563 22.7793 19.3661 22.8529 19.1402 22.8529C18.7175 22.8529 18.4192 22.5494 18.4192 22.069C18.4192 21.6121 18.7175 21.3086 19.1402 21.285C19.3632 21.285 19.563 21.3616 19.7628 21.5119L20.0118 21.0816C19.7628 20.8783 19.5138 20.8046 19.1663 20.8046C18.3961 20.8017 17.898 21.3351 17.898 22.069ZM22.7193 20.8547H22.1981V21.1583C22.0243 20.9313 21.7753 20.8046 21.451 20.8046C20.7792 20.8046 20.258 21.3351 20.258 22.069C20.258 22.8028 20.7792 23.3333 21.451 23.3333C21.7985 23.3333 22.0475 23.2066 22.1981 22.9797V23.2832H22.7193V20.8547ZM20.8052 22.069C20.8052 21.6387 21.0774 21.285 21.5263 21.285C21.949 21.285 22.2473 21.6151 22.2473 22.069C22.2473 22.4993 21.949 22.8529 21.5263 22.8529C21.0803 22.8264 20.8052 22.4963 20.8052 22.069ZM14.568 20.8017C13.8731 20.8017 13.375 21.3086 13.375 22.066C13.375 22.8264 13.8731 23.3304 14.5941 23.3304C14.9416 23.3304 15.289 23.2302 15.5641 23.0003L15.3151 22.6201C15.1153 22.7734 14.8663 22.8736 14.6201 22.8736C14.2958 22.8736 13.9744 22.7203 13.8991 22.293H15.6626C15.6626 22.2163 15.6626 22.1662 15.6626 22.0896C15.6857 21.3086 15.2369 20.8017 14.568 20.8017ZM14.568 21.2585C14.8923 21.2585 15.1153 21.4618 15.1645 21.8391H13.9223C13.9715 21.5119 14.1945 21.2585 14.568 21.2585ZM27.5174 19.8939H26.9961V21.1583C26.8224 20.9313 26.5734 20.8046 26.2491 20.8046C25.5773 20.8046 25.0561 21.3351 25.0561 22.069C25.0561 22.8028 25.5773 23.3333 26.2491 23.3333C26.5965 23.3333 26.8456 23.2066 26.9961 22.9797V23.2832H27.5174V19.8939ZM25.6033 22.069C25.6033 21.6387 25.8755 21.285 26.3244 21.285C26.7471 21.285 27.0454 21.6151 27.0454 22.069C27.0454 22.4993 26.7471 22.8529 26.3244 22.8529C25.8755 22.8264 25.6033 22.4963 25.6033 22.069ZM8.15415 20.8547H7.63293V21.1583C7.45919 20.9313 7.21017 20.8046 6.88586 20.8046C6.21406 20.8046 5.69285 21.3351 5.69285 22.069C5.69285 22.8028 6.21406 23.3333 6.88586 23.3333C7.23333 23.3333 7.48236 23.2066 7.63293 22.9797V23.2832H8.15415V20.8547ZM6.21696 22.069C6.21696 21.6387 6.48915 21.285 6.93798 21.285C7.36074 21.285 7.65899 21.6151 7.65899 22.069C7.65899 22.4993 7.36074 22.8529 6.93798 22.8529C6.48915 22.8264 6.21696 22.4963 6.21696 22.069Z" fill="#F3EDE3"/>
<path d="M18.37 1.94813H10.5402V16.2658H18.37V1.94813Z" fill="#D8CBB6"/>
<path d="M11.0614 9.10699C11.0614 6.19806 12.405 3.61627 14.4667 1.94813C12.9493 0.733864 11.0353 0 8.94756 0C4.00179 0 0 4.07309 0 9.10699C0 14.1409 4.00179 18.214 8.94756 18.214C11.0353 18.214 12.9493 17.4801 14.4667 16.2658C12.4021 14.6213 11.0614 12.0159 11.0614 9.10699Z" fill="#F3EDE3"/>
<path d="M28.9333 9.10699C28.9333 14.1409 24.9315 18.214 19.9858 18.214C17.898 18.214 15.984 17.4801 14.4667 16.2658C16.5544 14.5948 17.872 12.0159 17.872 9.10699C17.872 6.19806 16.5284 3.61627 14.4667 1.94813C15.9811 0.733864 17.8951 0 19.9829 0C24.9315 0 28.9333 4.09962 28.9333 9.10699Z" fill="var(--fill-0, #F3EDE3)"/>
</g>
</svg>
