<svg preserveAspectRatio="xMidYMid meet" overflow="visible" style="display: block;" viewBox="0 0 74.6667 24.2667" fill="none" xmlns="http://www.w3.org/2000/svg">
<path id="Vector" d="M48.6957 0C42.2516 0 38.9565 3.17121 38.9565 7.20214C38.9565 14.4935 47.3971 13.5121 47.3971 17.2592C47.3971 17.8918 46.9101 19.4004 43.3716 19.4004C39.8249 19.4004 37.5281 18.0378 37.5281 18.0378L36.4243 22.969C36.4243 22.969 38.7212 24.2667 43.1119 24.2667C47.5026 24.2667 53.5652 20.9089 53.5652 16.0264C53.5652 10.1544 45.1246 9.69207 45.1246 7.07237C45.1246 5.73414 46.1635 4.73654 49.2151 4.73654C51.1954 4.73654 53.4354 6.22888 53.4354 6.22888L54.4742 1.16791C54.4742 1.16791 51.5281 0 48.6957 0ZM21.2313 0.454189L15.6475 16.9348C15.6475 16.9348 15.2661 15.5316 15.1281 14.6638C11.9386 7.51034 6.75246 4.86631 6.75246 4.86631L11.687 23.5529H18.4394L27.789 0.454189H21.2313ZM30.1913 0.454189L26.5554 23.5529H32.7235L36.4243 0.454189H30.1913ZM63.4991 0.454189L53.4354 23.5529H59.5385L60.7722 20.2439H68.4336L69.0829 23.5529H74.6667L69.927 0.454189H63.4991ZM0 0.519073C0 0.519073 12.0603 4.24991 14.8684 13.3012L12.7907 2.79002C12.7907 2.79002 11.898 0.519073 9.47942 0.519073H0ZM65.8365 7.13725L67.5246 15.8317H62.4603L65.8365 7.13725Z" fill="var(--fill-0, #F3EDE3)"/>
</svg>
