<svg preserveAspectRatio="xMidYMid meet" overflow="visible" style="display: block;" viewBox="0 0 67.2 23.3333" fill="none" xmlns="http://www.w3.org/2000/svg">
<g id="Vector">
<path d="M0.540597 20.0453H1.04369L0.576195 21.9646C0.506815 22.2493 0.519892 22.4637 0.615788 22.6067C0.711321 22.7499 0.889129 22.8215 1.14903 22.8215C1.4073 22.8215 1.61907 22.7499 1.78452 22.6067C1.95016 22.4637 2.06767 22.2493 2.13705 21.9646L2.60436 20.0453H3.11399L2.63506 22.0121C2.53099 22.4395 2.34555 22.7594 2.08002 22.9715C1.81431 23.1839 1.46596 23.29 1.03497 23.29C0.60362 23.29 0.307758 23.1841 0.14666 22.9725C-0.0146205 22.7612 -0.0427719 22.4409 0.0616606 22.0121L0.540597 20.0453Z" fill="#F3EDE3"/>
<path d="M3.0464 23.2059L3.84662 19.9201L5.36716 21.8523C5.40784 21.9068 5.44889 21.9651 5.48939 22.0271C5.52989 22.089 5.5713 22.1587 5.6138 22.2365L6.14759 20.0453H6.61853L5.81885 23.3285L4.26635 21.3619C4.22476 21.3089 4.18607 21.2528 4.14993 21.1937C4.11342 21.1346 4.08055 21.0727 4.0504 21.0081L3.51516 23.2059H3.0464Z" fill="#F3EDE3"/>
<path d="M6.57685 23.2059L7.34656 20.0453H7.85583L7.0863 23.2059H6.57685Z" fill="#F3EDE3"/>
<path d="M7.81858 23.2059L8.58829 20.0453H10.3373L10.2311 20.4812H8.99149L8.79952 21.2692H10.0391L9.92938 21.7204H8.68963L8.32803 23.2059H7.81858Z" fill="#F3EDE3"/>
<path d="M10.1288 23.2059L10.8985 20.0453H11.4077L10.6382 23.2059H10.1288Z" fill="#F3EDE3"/>
<path d="M11.3705 23.2059L12.1402 20.0453H13.8892L13.783 20.4812H12.5434L12.3503 21.2735H13.5899L13.4802 21.7248H12.2406L11.9918 22.746H13.2314L13.1195 23.2059H11.3705Z" fill="#F3EDE3"/>
<path d="M14.3266 22.7416H14.7549C14.9903 22.7416 15.1708 22.7257 15.2963 22.6941C15.4218 22.6625 15.537 22.6091 15.6425 22.5343C15.7858 22.4324 15.9055 22.3053 16.0017 22.1534C16.0978 22.0016 16.1706 21.8247 16.2197 21.6232C16.2685 21.4216 16.282 21.2452 16.2598 21.0936C16.2375 20.9415 16.1797 20.8146 16.0862 20.7123C16.0159 20.6377 15.9231 20.5841 15.8072 20.5524C15.6911 20.5209 15.5023 20.5051 15.2396 20.5051H14.8713L14.3266 22.7416ZM13.7042 23.206L14.4739 20.0452H15.161C15.6078 20.0452 15.9165 20.0677 16.0876 20.113C16.2584 20.1585 16.3995 20.2346 16.5104 20.341C16.6577 20.4806 16.7515 20.6598 16.7918 20.8783C16.8319 21.0972 16.8178 21.347 16.7495 21.6276C16.6812 21.9083 16.5738 22.1569 16.4274 22.3735C16.2814 22.5902 16.1003 22.7689 15.8849 22.91C15.722 23.0165 15.5473 23.0924 15.3617 23.1379C15.1755 23.1831 14.898 23.206 14.5282 23.206H13.7042Z" fill="#F3EDE3"/>
<path d="M19.2301 21.3666H19.3608C19.6433 21.3666 19.8392 21.3354 19.9486 21.2736C20.0581 21.2118 20.1316 21.1024 20.1698 20.9455C20.2108 20.7771 20.1896 20.6582 20.1057 20.5893C20.0218 20.5202 19.8452 20.4854 19.5755 20.4854H19.4447L19.2301 21.3666ZM19.0955 21.7872L18.75 23.2059H18.2727L19.0426 20.0453H19.8133C20.0416 20.0453 20.2066 20.0578 20.3084 20.083C20.4097 20.108 20.4934 20.1496 20.5595 20.2073C20.64 20.2806 20.6928 20.3795 20.7183 20.504C20.7435 20.6286 20.7381 20.7657 20.7017 20.9151C20.6651 21.0649 20.6037 21.2031 20.5172 21.3298C20.4308 21.4564 20.3294 21.5558 20.2135 21.6276C20.1195 21.6853 20.0158 21.7263 19.9021 21.7506C19.7882 21.7752 19.6173 21.7872 19.389 21.7872H19.0955Z" fill="#F3EDE3"/>
<path d="M21.3307 21.9646H22.2041L22.0583 21.2433C22.0514 21.1975 22.0448 21.1446 22.0392 21.0848C22.0339 21.025 22.0303 20.9584 22.0279 20.885C21.9942 20.9541 21.9602 21.0186 21.9262 21.0784C21.8924 21.138 21.8596 21.193 21.8272 21.2433L21.3307 21.9646ZM22.4371 23.2059L22.2797 22.392H21.0379L20.4758 23.2059H19.9409L22.2586 19.9201L22.9744 23.2059H22.4371Z" fill="#F3EDE3"/>
<path d="M23.7045 23.2059L24.0565 21.7593L23.4187 20.0453H23.9539L24.3498 21.1182C24.3589 21.1457 24.3698 21.1816 24.3823 21.2262C24.3951 21.2709 24.4074 21.3189 24.419 21.3708C24.451 21.3205 24.4839 21.2726 24.5167 21.2282C24.5496 21.1836 24.5829 21.1427 24.6165 21.1052L25.5487 20.0453H26.0584L24.5618 21.7593L24.2096 23.2059H23.7045Z" fill="#F3EDE3"/>
<path d="M28.5655 21.6448C28.5657 21.6204 28.5729 21.5529 28.5871 21.442C28.598 21.3499 28.6065 21.2735 28.6127 21.213C28.5824 21.2851 28.5466 21.3572 28.5056 21.429C28.4643 21.501 28.4171 21.5743 28.3632 21.6493L27.133 23.3333L26.7317 21.6149C26.7146 21.5442 26.7015 21.4758 26.6928 21.4097C26.6841 21.3435 26.6781 21.278 26.6752 21.213C26.6577 21.2794 26.6356 21.3487 26.6085 21.4215C26.5815 21.4942 26.5491 21.5702 26.5112 21.6493L25.7959 23.2059H25.3274L26.8702 19.9112L27.3094 21.9062C27.3158 21.9378 27.325 21.9905 27.3363 22.0638C27.3475 22.1372 27.3608 22.2279 27.3762 22.3357C27.4282 22.245 27.503 22.1301 27.6015 21.9905C27.6276 21.953 27.6476 21.9242 27.661 21.9041L29.0499 19.9112L29.0054 23.2059H28.5321L28.5655 21.6448Z" fill="#F3EDE3"/>
<path d="M29.4121 23.2059L30.182 20.0453H31.9311L31.8248 20.4812H30.5851L30.3922 21.2735H31.6317L31.522 21.7248H30.2823L30.0337 22.746H31.2732L31.161 23.2059H29.4121Z" fill="#F3EDE3"/>
<path d="M31.7458 23.2059L32.546 19.9201L34.0666 21.8523C34.1073 21.9068 34.1483 21.9651 34.1888 22.0271C34.2293 22.089 34.2707 22.1587 34.3132 22.2365L34.847 20.0453H35.3181L34.5183 23.3285L32.9658 21.3619C32.9242 21.3089 32.8855 21.2528 32.8493 21.1937C32.8128 21.1346 32.78 21.0727 32.7498 21.0081L32.2146 23.2059H31.7458Z" fill="#F3EDE3"/>
<path d="M36.9437 20.4813L36.2802 23.2059H35.7708L36.4341 20.4813H35.6013L35.7076 20.0453H37.8783L37.7722 20.4813H36.9437Z" fill="#F3EDE3"/>
<path d="M37.4724 22.5732L37.9254 22.3834C37.9299 22.5243 37.9742 22.6319 38.0589 22.706C38.1435 22.7803 38.2657 22.8173 38.4259 22.8173C38.577 22.8173 38.7078 22.7748 38.8175 22.6898C38.9274 22.605 38.9998 22.4913 39.0345 22.3488C39.0798 22.163 38.967 21.9975 38.6973 21.8523C38.6595 21.8307 38.6304 21.8148 38.6104 21.8047C38.3062 21.6349 38.1133 21.4812 38.032 21.3437C37.9508 21.2062 37.9341 21.0383 37.9824 20.8397C38.0451 20.5821 38.1827 20.3734 38.395 20.2136C38.6074 20.0539 38.854 19.9739 39.1353 19.9739C39.3665 19.9739 39.5491 20.0189 39.6826 20.1089C39.8162 20.199 39.8925 20.3281 39.9114 20.4964L39.463 20.7037C39.4241 20.6044 39.3729 20.5318 39.3093 20.4855C39.2456 20.4395 39.1649 20.4164 39.0681 20.4164C38.9312 20.4164 38.8135 20.4527 38.7152 20.5243C38.6175 20.5964 38.5534 20.6928 38.5238 20.8138C38.4777 21.0038 38.6115 21.1807 38.9256 21.3448C38.9497 21.3576 38.9686 21.368 38.9822 21.3751C39.257 21.5188 39.4357 21.6597 39.5176 21.7972C39.5997 21.9348 39.6159 22.1064 39.5656 22.312C39.4928 22.6116 39.3415 22.8494 39.1115 23.0256C38.8816 23.2018 38.6074 23.29 38.2893 23.29C38.0222 23.29 37.8186 23.2282 37.6784 23.1043C37.5378 22.9806 37.4691 22.8037 37.4724 22.5732Z" fill="#F3EDE3"/>
<path d="M41.2364 23.2059L42.0062 20.0453H42.5156L41.7459 23.2059H41.2364Z" fill="#F3EDE3"/>
<path d="M42.4782 23.2059L43.2784 19.9201L44.7989 21.8523C44.8396 21.9068 44.8807 21.9651 44.9212 22.0271C44.9617 22.089 45.0031 22.1587 45.0456 22.2365L45.5794 20.0453H46.0503L45.2506 23.3285L43.6981 21.3619C43.6565 21.3089 43.6177 21.2528 43.5815 21.1937C43.5452 21.1346 43.5121 21.0727 43.482 21.0081L42.9469 23.2059H42.4782Z" fill="#F3EDE3"/>
<path d="M47.676 20.4813L47.0124 23.2059H46.5031L47.1664 20.4813H46.3337L46.4399 20.0453H48.6107L48.5046 20.4813H47.676Z" fill="#F3EDE3"/>
<path d="M48.2307 23.2059L49.0004 20.0453H50.7494L50.6433 20.4812H49.4037L49.2107 21.2735H50.4502L50.3404 21.7248H49.1008L48.8522 22.746H50.0917L49.9797 23.2059H48.2307Z" fill="#F3EDE3"/>
<path d="M51.5154 21.3922H51.6077C51.8772 21.3922 52.0641 21.3608 52.168 21.2974C52.2719 21.234 52.3438 21.1219 52.3827 20.9605C52.4252 20.7865 52.4078 20.6637 52.3298 20.5926C52.2527 20.521 52.0854 20.4855 51.8286 20.4855H51.7363L51.5154 21.3922ZM51.3861 21.7916L51.0416 23.2059H50.5643L51.3342 20.0452H52.0449C52.2532 20.0452 52.4116 20.0588 52.5196 20.0863C52.6279 20.1136 52.7151 20.1588 52.781 20.2223C52.8595 20.2984 52.9103 20.3973 52.9339 20.5182C52.957 20.6388 52.951 20.7713 52.9161 20.915C52.8545 21.1683 52.7456 21.3667 52.5894 21.51C52.4332 21.653 52.233 21.7393 51.9891 21.7678L52.7181 23.2059H52.142L51.4439 21.7916H51.3861Z" fill="#F3EDE3"/>
<path d="M53.02 23.2059L53.7898 20.0453H55.5388L55.4327 20.4812H54.193L54.001 21.2692H55.2407L55.1308 21.7204H53.8913L53.5295 23.2059H53.02Z" fill="#F3EDE3"/>
<path d="M56.1292 21.9646H57.0028L56.857 21.2433C56.8499 21.1975 56.8435 21.1446 56.8379 21.0848C56.8327 21.025 56.829 20.9584 56.8267 20.885C56.7927 20.9541 56.7587 21.0186 56.725 21.0784C56.6912 21.138 56.6581 21.193 56.6258 21.2433L56.1292 21.9646ZM57.2359 23.2059L57.0784 22.392H55.8366L55.2745 23.2059H54.7395L57.0571 19.9201L57.7731 23.2059H57.2359Z" fill="#F3EDE3"/>
<path d="M61.0894 20.8138C60.9756 20.69 60.8459 20.5972 60.7002 20.5353C60.5549 20.4737 60.3936 20.4424 60.2166 20.4424C59.8742 20.4424 59.5684 20.5533 59.2997 20.7748C59.0308 20.9966 58.8535 21.2836 58.7676 21.6364C58.6846 21.9776 58.7207 22.2587 58.8758 22.4803C59.0309 22.702 59.2678 22.8131 59.5858 22.8131C59.7716 22.8131 59.9561 22.7799 60.1399 22.7136C60.3237 22.6474 60.5092 22.5474 60.6957 22.4133L60.5542 22.9943C60.3931 23.0935 60.2258 23.1678 60.0527 23.2165C59.8795 23.2654 59.6988 23.2899 59.5104 23.2899C59.2707 23.2899 59.0585 23.2504 58.8746 23.1712C58.6904 23.0921 58.5398 22.9757 58.4234 22.8214C58.3075 22.6704 58.2333 22.4924 58.2015 22.2871C58.1691 22.0822 58.1813 21.8637 58.2376 21.6318C58.2941 21.4002 58.3884 21.1826 58.52 20.9789C58.6515 20.7752 58.8141 20.5963 59.007 20.4424C59.2006 20.2869 59.4076 20.1695 59.6281 20.0893C59.8488 20.0097 60.0764 19.9695 60.3105 19.9695C60.4946 19.9695 60.6635 19.9966 60.8174 20.0507C60.9712 20.1045 61.1132 20.1861 61.2438 20.2959L61.0894 20.8138Z" fill="#F3EDE3"/>
<path d="M61.1387 23.2059L61.9085 20.0453H63.6575L63.5512 20.4812H62.3118L62.1188 21.2735H63.3583L63.2485 21.7248H62.0089L61.7603 22.746H62.9998L62.8878 23.2059H61.1387Z" fill="#F3EDE3"/>
<path d="M51.8462 17.291H48.344L53.2148 0H56.7171L51.8462 17.291Z" fill="#F3EDE3"/>
<path d="M50.0281 0.546643C49.7852 0.217621 49.4107 0.0515923 48.902 0.0515923H29.6436L28.6897 3.43821H32.1939V3.43625H46.2095L45.1898 7.0553H31.1739L31.1752 7.04781H27.6724L24.7652 17.3642H28.2698L30.2208 10.44H45.9757C46.4677 10.44 46.9309 10.275 47.3664 9.94509C47.801 9.61482 48.0871 9.2076 48.2242 8.7213L50.175 1.7956C50.3174 1.29306 50.2682 0.876021 50.0281 0.546643Z" fill="#F3EDE3"/>
<path d="M22.7244 16.2117C22.531 16.8963 21.8968 17.37 21.1737 17.37H3.10401C2.61163 17.37 2.24566 17.205 2.00501 16.8754C1.76455 16.5455 1.71297 16.1374 1.85045 15.6513L6.2595 0.0505396H9.76498L5.82688 13.9844H19.8492L23.7873 0.0505396H27.292L22.7244 16.2117Z" fill="#F3EDE3"/>
<path d="M62.7659 0.0323497L67.2 8.70027L57.8788 17.3659L62.7659 0.0323497Z" fill="#D8CBB6"/>
<path d="M59.6576 0.0323497L64.0884 8.70027L54.7634 17.3659L59.6576 0.0323497Z" fill="var(--fill-0, #F3EDE3)"/>
</g>
</svg>
