<svg width="89" height="24" viewBox="0 0 89 24" fill="none" xmlns="http://www.w3.org/2000/svg">
<path d="M83.7858 1.7156L88.7955 11.663L78.2642 21.6152L83.7858 1.7156Z" fill="#D8CBB6"/>
<path d="M80.3212 1.7156L85.3234 11.663L74.7991 21.6152L80.3212 1.7156Z" fill="#F3EDE3"/>
<path d="M0 17.9961L4.99486 0.000822067H12.9804C15.476 0.000822067 17.1432 0.39591 17.9913 1.21007C18.8334 2.01769 18.9956 3.33596 18.488 5.18886C18.181 6.28037 17.7144 7.19658 17.0734 7.92047C16.4376 8.64567 15.599 9.21911 14.5664 9.6408C15.4425 9.85143 15.9998 10.2696 16.2496 10.8967C16.4982 11.5238 16.4694 12.4383 16.1677 13.637L15.5602 16.1506L15.5585 16.2186C15.3832 16.9225 15.435 17.2992 15.7207 17.3298L15.5367 17.9961H10.1345C10.1528 17.5727 10.1864 17.1941 10.2221 16.8762C10.2614 16.5509 10.3098 16.2989 10.3578 16.1257L10.8614 14.3287C11.1152 13.3941 11.1309 12.7422 10.8955 12.3667C10.6578 11.9812 10.1258 11.7915 9.28588 11.7915H7.01565L5.28442 17.9961H0ZM8.13899 7.73644H10.5706C11.4227 7.73644 12.0515 7.61478 12.4392 7.36316C12.8286 7.10936 13.1177 6.68069 13.2874 6.06059C13.4631 5.43002 13.4199 4.99045 13.1679 4.74057C12.9162 4.48678 12.314 4.36336 11.3673 4.36336H9.07526L8.13899 7.73644Z" fill="#F3EDE3"/>
<path d="M33.3109 4.71826L29.6286 17.9973H25.154L25.7039 16.052C24.9164 16.8256 24.1105 17.413 23.2981 17.7884C22.4922 18.1704 21.6418 18.3584 20.7466 18.3584C20.0065 18.3584 19.3712 18.2241 18.8597 17.9576C18.342 17.6921 17.9565 17.2883 17.6971 16.7558C17.4668 16.2896 17.3665 15.714 17.4058 15.0263C17.4472 14.3495 17.6862 13.2079 18.1292 11.6092L20.0375 4.71826H24.9321L23.0277 11.5769C22.7495 12.5808 22.6832 13.2864 22.8188 13.6705C22.9601 14.0582 23.3373 14.2584 23.9496 14.2584C24.5662 14.2584 25.0847 14.0351 25.5129 13.5794C25.9473 13.1276 26.2826 12.4539 26.5347 11.5573L28.4233 4.71826H33.3109Z" fill="#F3EDE3"/>
<path d="M31.5339 17.9961L36.5236 0.000822067H43.3875C44.902 0.000822067 46.0741 0.0902176 46.9101 0.286453C47.7443 0.474403 48.3985 0.779659 48.8847 1.21007C49.4939 1.77305 49.8672 2.4699 50.0207 3.30587C50.165 4.14184 50.0795 5.1156 49.7634 6.259C49.2043 8.27064 48.2245 9.81218 46.8281 10.8893C45.4274 11.9525 43.6945 12.4867 41.6261 12.4867H38.414L36.8881 17.9961H31.5339ZM39.6302 8.09185H41.3562C42.4721 8.09185 43.2566 7.95405 43.7163 7.68804C44.1611 7.41854 44.4772 6.93972 44.67 6.259C44.8627 5.56913 44.813 5.08682 44.5217 4.81732C44.2413 4.54913 43.5248 4.41351 42.3784 4.41351H40.6559L39.6302 8.09185Z" fill="#F3EDE3"/>
<path d="M55.5224 17.9974L55.5722 16.7363C54.7828 17.3271 53.9835 17.7737 53.1798 18.0528C52.3796 18.3371 51.5275 18.4814 50.6148 18.4814C49.2285 18.4814 48.2617 18.1047 47.7027 17.3755C47.1506 16.6451 47.0599 15.5963 47.4366 14.2584C47.7973 12.938 48.4388 11.966 49.3641 11.3446C50.2842 10.7157 51.821 10.2657 53.977 9.97789C54.2504 9.93341 54.6167 9.89765 55.0755 9.84227C56.6693 9.65781 57.5642 9.23306 57.7569 8.54013C57.8572 8.16074 57.7962 7.88078 57.5607 7.70896C57.3335 7.53061 56.9087 7.44296 56.2956 7.44296C55.7867 7.44296 55.3772 7.54849 55.0414 7.76783C54.7061 7.98936 54.4558 8.31293 54.2862 8.7682H49.5141C49.945 7.27332 50.8254 6.14387 52.1472 5.38858C53.4641 4.62021 55.2006 4.25042 57.3514 4.25042C58.3626 4.25042 59.2684 4.34504 60.069 4.55044C60.871 4.74711 61.4571 5.02751 61.8373 5.36678C62.3052 5.79021 62.5821 6.27295 62.6611 6.80672C62.7522 7.33917 62.6523 8.10231 62.3733 9.10093L60.3206 16.5043C60.2548 16.7467 60.2421 16.963 60.2779 17.1597C60.3206 17.3472 60.4026 17.5077 60.5474 17.6224L60.4371 17.9974H55.5224ZM56.7121 12.068C56.1923 12.2769 55.5168 12.4771 54.6773 12.6968C53.359 13.0505 52.6173 13.5223 52.4568 14.1063C52.3456 14.4817 52.3905 14.7708 52.5741 14.9906C52.7551 15.1995 53.0695 15.305 53.5125 15.305C54.325 15.305 54.9773 15.0996 55.4636 14.6941C55.9511 14.2833 56.3157 13.6383 56.5708 12.7487C56.6153 12.5595 56.6545 12.4234 56.6798 12.3218L56.7121 12.068Z" fill="#F3EDE3"/>
<path d="M60.4778 23.2299L61.5641 19.2995H62.9647C63.4327 19.2995 63.8007 19.207 64.0615 19.0387C64.3262 18.8638 64.5063 18.569 64.6101 18.1722C64.662 17.9973 64.6938 17.8133 64.7156 17.6044C64.7296 17.3829 64.7296 17.1487 64.7156 16.8775L63.9682 4.71827H68.9225L68.8457 12.7753L73.1708 4.71827H77.7779L70.1317 17.9332C69.2639 19.4102 68.6334 20.425 68.233 20.9788C67.8379 21.5257 67.4629 21.9508 67.0988 22.2387C66.6269 22.6368 66.1002 22.9189 65.5315 23.0833C64.9616 23.2512 64.0938 23.335 62.9272 23.335C62.5915 23.335 62.2051 23.3284 61.7873 23.3066C61.3726 23.2905 60.93 23.2656 60.4778 23.2299Z" fill="#F3EDE3"/>
</svg>
