<svg preserveAspectRatio="xMidYMid meet" overflow="visible" style="display: block;" viewBox="0 0 154.933 23.3333" fill="none" xmlns="http://www.w3.org/2000/svg">
<g id="Frame 114">
<path id="Vector" d="M6.48148 0C2.90241 0 0 2.90241 0 6.48148V16.8519C0 20.4309 2.90241 23.3333 6.48148 23.3333H16.8519C20.4309 23.3333 23.3333 20.4309 23.3333 16.8519V6.48148C23.3333 2.90241 20.4309 0 16.8519 0H6.48148ZM19.4444 2.59259C20.16 2.59259 20.7407 3.17333 20.7407 3.88889C20.7407 4.60444 20.16 5.18519 19.4444 5.18519C18.7289 5.18519 18.1481 4.60444 18.1481 3.88889C18.1481 3.17333 18.7289 2.59259 19.4444 2.59259ZM11.6667 5.18519C15.2457 5.18519 18.1481 8.08759 18.1481 11.6667C18.1481 15.2457 15.2457 18.1481 11.6667 18.1481C8.08759 18.1481 5.18519 15.2457 5.18519 11.6667C5.18519 8.08759 8.08759 5.18519 11.6667 5.18519ZM11.6667 7.77778C10.6353 7.77778 9.64612 8.1875 8.91681 8.91681C8.1875 9.64612 7.77778 10.6353 7.77778 11.6667C7.77778 12.6981 8.1875 13.6872 8.91681 14.4165C9.64612 15.1458 10.6353 15.5556 11.6667 15.5556C12.6981 15.5556 13.6872 15.1458 14.4165 14.4165C15.1458 13.6872 15.5556 12.6981 15.5556 11.6667C15.5556 10.6353 15.1458 9.64612 14.4165 8.91681C13.6872 8.1875 12.6981 7.77778 11.6667 7.77778Z" fill="var(--fill-0, #F3EDE3)"/>
<path id="Vector_2" d="M64.6074 0H46.4593C45.0269 0 43.8667 1.16019 43.8667 2.59259V20.7407C43.8667 22.1731 45.0269 23.3333 46.4593 23.3333H64.6074C66.0398 23.3333 67.2 22.1731 67.2 20.7407V2.59259C67.2 1.16019 66.0398 0 64.6074 0ZM51.6444 18.1481H48.3739V9.07407H51.6444V18.1481ZM49.9515 7.41093C48.952 7.41093 48.2844 6.74463 48.2844 5.85537C48.2844 4.96611 48.9507 4.29981 50.0617 4.29981C51.0611 4.29981 51.7287 4.96611 51.7287 5.85537C51.7287 6.74463 51.0624 7.41093 49.9515 7.41093ZM63.3111 18.1481H60.1456V13.1885C60.1456 11.817 59.3017 11.5007 58.9854 11.5007C58.6691 11.5007 57.6139 11.712 57.6139 13.1885C57.6139 13.3998 57.6139 18.1481 57.6139 18.1481H54.3433V9.07407H57.6139V10.3406C58.0352 9.60167 58.8791 9.07407 60.4619 9.07407C62.0446 9.07407 63.3111 10.3406 63.3111 13.1885V18.1481Z" fill="var(--fill-0, #F3EDE3)"/>
<path id="Vector_3" d="M99.4 0C92.9565 0 87.7333 5.25021 87.7333 11.7271C87.7333 17.6058 92.0418 22.4608 97.6558 23.3087V14.8347H94.7695V11.7517H97.6558V9.70063C97.6558 6.30447 99.302 4.81396 102.11 4.81396C103.455 4.81396 104.166 4.91364 104.503 4.95937V7.64956H102.587C101.395 7.64956 100.979 8.78591 100.979 10.0665V11.7517H104.473L103.999 14.8347H100.98V23.3333C106.674 22.5582 111.067 17.6633 111.067 11.7271C111.067 5.25021 105.844 0 99.4 0Z" fill="var(--fill-0, #F3EDE3)"/>
<path id="Vector_4" d="M143.267 0C136.823 0 131.6 5.22317 131.6 11.6667C131.6 16.6098 134.675 20.8308 139.015 22.5307C138.914 21.6078 138.821 20.1915 139.056 19.1847C139.269 18.2747 140.424 13.3852 140.424 13.3852C140.424 13.3852 140.075 12.6863 140.075 11.6538C140.075 10.031 141.015 8.82117 142.185 8.82117C143.18 8.82117 143.661 9.569 143.661 10.4638C143.661 11.4648 143.024 12.9617 142.695 14.3477C142.42 15.5097 143.277 16.4558 144.423 16.4558C146.496 16.4558 148.09 14.2695 148.09 11.1137C148.09 8.32067 146.083 6.36767 143.217 6.36767C139.897 6.36767 137.949 8.85733 137.949 11.431C137.949 12.4332 138.335 13.5088 138.817 14.0933C138.913 14.2088 138.926 14.3103 138.898 14.4282C138.809 14.7968 138.613 15.589 138.574 15.7512C138.524 15.9647 138.405 16.0102 138.185 15.9063C136.728 15.2273 135.816 13.097 135.816 11.3867C135.816 7.707 138.49 4.326 143.526 4.326C147.573 4.326 150.718 7.21 150.718 11.0647C150.718 15.0862 148.183 18.3213 144.664 18.3213C143.483 18.3213 142.371 17.7065 141.99 16.982C141.99 16.982 141.405 19.2092 141.264 19.7563C141 20.769 140.289 22.0407 139.813 22.8153C140.904 23.1502 142.064 23.3333 143.267 23.3333C149.709 23.3333 154.933 18.109 154.933 11.6667C154.933 5.22433 149.71 0 143.267 0Z" fill="var(--fill-0, #F3EDE3)"/>
</g>
</svg>
