<?xml version="1.0" encoding="UTF-8"?>
<svg id="Layer_2" data-name="Layer 2" xmlns="http://www.w3.org/2000/svg" viewBox="0 0 244.1 115.13">
  <defs>
    <style>
      .cls-1, .cls-2 {
        fill: #bc7e5a;
        stroke-width: 0px;
      }

      .cls-2 {
        fill-rule: evenodd;
      }
    </style>
  </defs>
  <g id="Layer_2-2" data-name="Layer 2">
    <g id="First_Page" data-name="First Page">
      <g>
        <path class="cls-1" d="M227.67,16.1c-5.17-5.06-11.34-9.01-18.51-11.84S194.12.01,185.56.01s-16.4,1.42-23.52,4.25c-7.12,2.84-13.26,6.78-18.43,11.84-5.17,5.06-9.2,11.12-12.09,18.18-2.46,6.01-3.86,12.53-4.23,19.55-8.88,4.46-17.57,11.33-26.29,20.71-19.15,20.59-33.83,22.21-42.6,22.21-5.67,0-10.84-.97-15.51-2.92-4.67-1.94-8.7-4.64-12.09-8.09-3.39-3.45-6.03-7.59-7.92-12.43s-2.83-10.09-2.83-15.76.94-11.06,2.83-15.85c1.89-4.78,4.53-8.9,7.92-12.34,3.39-3.45,7.42-6.14,12.09-8.09,4.67-1.94,9.84-2.92,15.51-2.92,7.56,0,14.29,1.75,20.18,5.25s10.45,8.42,13.68,14.76h21.68c-1.89-5.89-4.59-11.2-8.09-15.93s-7.65-8.76-12.43-12.09c-4.78-3.34-10.15-5.89-16.1-7.67-5.95-1.78-12.26-2.67-18.93-2.67-8.56,0-16.4,1.42-23.52,4.25-7.12,2.84-13.26,6.78-18.43,11.84s-9.2,11.12-12.09,18.18C1.44,41.34,0,49.1,0,57.55s1.44,16.18,4.34,23.19c2.89,7,6.92,13.07,12.09,18.18,5.17,5.12,11.31,9.09,18.43,11.93,7.11,2.83,14.95,4.25,23.52,4.25v.03c10.44,0,32.16,0,57.25-26.96,5.05-5.42,9.72-9.5,14.08-12.53.52,1.74,1.12,3.45,1.81,5.11,2.89,7,6.92,13.07,12.09,18.18,5.17,5.12,11.31,9.09,18.43,11.93,7.12,2.83,14.96,4.25,23.52,4.25s16.23-1.45,23.35-4.34c7.12-2.89,13.29-6.89,18.51-12.01,5.23-5.11,9.31-11.2,12.26-18.26,2.95-7.06,4.42-14.7,4.42-22.93s-1.45-16.21-4.34-23.27c-2.89-7.06-6.92-13.12-12.09-18.18v-.02ZM221.16,73.22c-1.95,4.78-4.62,8.92-8.01,12.43-3.39,3.5-7.45,6.23-12.18,8.17-4.73,1.95-9.87,2.92-15.43,2.92s-10.84-.97-15.51-2.92c-4.67-1.94-8.7-4.64-12.09-8.09-3.39-3.45-6.03-7.59-7.92-12.43-.69-1.77-1.26-3.6-1.69-5.49,4.31-.58,8.23-.28,11.85.32,13.27,2.21,19.66,9.93,19.93,10.26l-.08-.1,15.86-12.19c-1.11-1.44-11.44-14.21-32.43-17.7-5.22-.87-10.29-1.08-15.26-.65.46-2.1,1.06-4.13,1.83-6.07,1.89-4.78,4.53-8.9,7.92-12.34,3.39-3.45,7.42-6.14,12.09-8.09,4.67-1.94,9.84-2.92,15.51-2.92s10.87.97,15.6,2.92c4.73,1.95,8.78,4.64,12.18,8.09,3.39,3.45,6.03,7.56,7.92,12.34s2.84,10.07,2.84,15.85-.97,10.9-2.92,15.68h-.01Z"/>
        <path class="cls-2" d="M227.67,16.1c-5.17-5.06-11.34-9.01-18.51-11.84S194.12.01,185.56.01s-16.4,1.42-23.52,4.25c-7.12,2.84-13.26,6.78-18.43,11.84-5.17,5.06-9.2,11.12-12.09,18.18-2.46,6.01-3.86,12.53-4.23,19.55-8.88,4.46-17.57,11.33-26.29,20.71-19.15,20.59-33.83,22.21-42.6,22.21-5.67,0-10.84-.97-15.51-2.92-4.67-1.94-8.7-4.64-12.09-8.09-3.39-3.45-6.03-7.59-7.92-12.43s-2.83-10.09-2.83-15.76.94-11.06,2.83-15.85c1.89-4.78,4.53-8.9,7.92-12.34,3.39-3.45,7.42-6.14,12.09-8.09,4.67-1.94,9.84-2.92,15.51-2.92,7.56,0,14.29,1.75,20.18,5.25s10.45,8.42,13.68,14.76h21.68c-1.89-5.89-4.59-11.2-8.09-15.93s-7.65-8.76-12.43-12.09c-4.78-3.34-10.15-5.89-16.1-7.67-5.95-1.78-12.26-2.67-18.93-2.67-8.56,0-16.4,1.42-23.52,4.25-7.12,2.84-13.26,6.78-18.43,11.84s-9.2,11.12-12.09,18.18C1.44,41.34,0,49.1,0,57.55s1.44,16.18,4.34,23.19c2.89,7,6.92,13.07,12.09,18.18,5.17,5.12,11.31,9.09,18.43,11.93,7.11,2.83,14.95,4.25,23.52,4.25v.03c10.44,0,32.16,0,57.25-26.96,5.05-5.42,9.72-9.5,14.08-12.53.52,1.74,1.12,3.45,1.81,5.11,2.89,7,6.92,13.07,12.09,18.18,5.17,5.12,11.31,9.09,18.43,11.93,7.12,2.83,14.96,4.25,23.52,4.25s16.23-1.45,23.35-4.34c7.12-2.89,13.29-6.89,18.51-12.01,5.23-5.11,9.31-11.2,12.26-18.26,2.95-7.06,4.42-14.7,4.42-22.93s-1.45-16.21-4.34-23.27c-2.89-7.06-6.92-13.12-12.09-18.18v-.02ZM221.16,73.22c-1.95,4.78-4.62,8.92-8.01,12.43-3.39,3.5-7.45,6.23-12.18,8.17-4.73,1.95-9.87,2.92-15.43,2.92s-10.84-.97-15.51-2.92c-4.67-1.94-8.7-4.64-12.09-8.09-3.39-3.45-6.03-7.59-7.92-12.43-.69-1.77-1.26-3.6-1.69-5.49,4.31-.58,8.23-.28,11.85.32,13.27,2.21,19.66,9.93,19.93,10.26l-.08-.1,15.86-12.19c-1.11-1.44-11.44-14.21-32.43-17.7-5.22-.87-10.29-1.08-15.26-.65.46-2.1,1.06-4.13,1.83-6.07,1.89-4.78,4.53-8.9,7.92-12.34,3.39-3.45,7.42-6.14,12.09-8.09,4.67-1.94,9.84-2.92,15.51-2.92s10.87.97,15.6,2.92c4.73,1.95,8.78,4.64,12.18,8.09,3.39,3.45,6.03,7.56,7.92,12.34s2.84,10.07,2.84,15.85-.97,10.9-2.92,15.68h-.01Z"/>
      </g>
    </g>
  </g>
</svg>