<svg width="27" height="23" viewBox="0 0 27 23" fill="none" xmlns="http://www.w3.org/2000/svg">
<path d="M25.6266 5.00603C25.3667 4.65581 25.0326 4.37327 24.6504 4.18062C24.2683 3.98797 23.8485 3.89047 23.4241 3.89578H7.67117L6.30865 1.31493C6.0888 0.911466 5.76948 0.576766 5.38383 0.34557C4.99819 0.114373 4.56028 -0.0048921 4.11555 0.000153711H0.933232C0.685724 0.000153711 0.448352 0.102762 0.273337 0.285404C0.0983223 0.468047 0 0.715764 0 0.97406C0 1.23236 0.0983223 1.48007 0.273337 1.66272C0.448352 1.84536 0.685724 1.94797 0.933232 1.94797H4.11555C4.226 1.94303 4.33576 1.9683 4.43398 2.02125C4.53219 2.07421 4.61544 2.15302 4.67549 2.24988L6.21533 5.1716L7.01791 14.2484C7.12547 15.1882 7.5705 16.0505 8.26326 16.6614C8.95601 17.2723 9.84495 17.5863 10.7508 17.5402H20.4285C21.2287 17.5613 22.0135 17.3079 22.6625 16.8189C23.3115 16.3298 23.7889 15.6321 24.0214 14.8327L26.0465 7.2168C26.1463 6.83962 26.1603 6.44334 26.0874 6.05952C26.0145 5.6757 25.8567 5.31496 25.6266 5.00603ZM24.264 6.68115L22.2389 14.3068C22.1128 14.6971 21.8673 15.0334 21.5402 15.2639C21.2131 15.4944 20.8225 15.6064 20.4285 15.5827H10.7135C10.2773 15.616 9.84469 15.479 9.49979 15.1983C9.15488 14.9175 8.92225 14.513 8.84704 14.0634L8.14712 5.84359H23.4241C23.5605 5.84217 23.6955 5.87195 23.8197 5.93084C23.9438 5.98973 24.0541 6.0763 24.1427 6.18446C24.1984 6.2518 24.2383 6.33172 24.2594 6.41791C24.2804 6.5041 24.282 6.59421 24.264 6.68115Z" fill="#4B4A4A"/>
<path d="M11.1988 22.4C12.2296 22.4 13.0652 21.5279 13.0652 20.4522C13.0652 19.3764 12.2296 18.5044 11.1988 18.5044C10.168 18.5044 9.33232 19.3764 9.33232 20.4522C9.33232 21.5279 10.168 22.4 11.1988 22.4Z" fill="#4B4A4A"/>
<path d="M20.5311 22.4C21.5619 22.4 22.3976 21.5279 22.3976 20.4522C22.3976 19.3764 21.5619 18.5044 20.5311 18.5044C19.5003 18.5044 18.6646 19.3764 18.6646 20.4522C18.6646 21.5279 19.5003 22.4 20.5311 22.4Z" fill="#4B4A4A"/>
</svg>
