<svg preserveAspectRatio="xMidYMid meet" overflow="visible" style="display:block" viewBox="0 0 22.3996 19.5999" fill="none" xmlns="http://www.w3.org/2000/svg">
<path d="M22.203 5.00551C21.4625 1.89282 19.1737 0.0300426 16.0101 0.00191468C14.4978 -0.011555 13.1652 0.547438 11.9045 1.33066C11.6595 1.48319 11.4223 1.64878 11.1914 1.8017C10.9085 1.61313 10.6591 1.43802 10.4016 1.27678C8.66857 0.194056 6.82477 -0.292042 4.78997 0.180586C1.36655 0.975695 0.035458 4.02381 0.00101632 6.4333C-0.041253 9.37683 1.23779 11.8125 3.31329 13.7909C5.68546 16.0519 8.41144 17.8433 11.1934 19.5999C13.5049 18.1591 15.7205 16.6326 17.8128 14.9236C19.1979 13.7921 20.4331 12.5339 21.2527 10.912C22.194 9.0488 22.7051 7.11629 22.203 5.00551ZM19.4218 10.6774C18.6617 11.9583 17.5725 12.919 16.4367 13.8381C15.3049 14.7536 14.1303 15.6093 12.9296 16.429C12.3691 16.8117 11.8 17.1821 11.2047 17.5779C10.9202 17.3929 10.6368 17.2118 10.3566 17.0264C8.39148 15.7246 6.46783 14.3646 4.71561 12.7752C3.15595 11.36 2.13562 9.6276 1.75558 7.52237C1.37125 5.39415 2.4405 3.03577 4.2299 2.19114C5.60522 1.54182 7.00324 1.55846 8.40009 2.15826C9.31279 2.55007 10.1206 3.10272 10.8666 3.756C10.9633 3.84078 11.0619 3.92358 11.182 4.02619C11.6184 3.68073 12.0172 3.33527 12.4454 3.03181C13.4838 2.29731 14.6094 1.71772 15.8978 1.71613C18.6707 1.71217 20.2566 3.3119 20.6519 5.98444C20.9059 7.70183 20.2793 9.23302 19.4222 10.6778L19.4218 10.6774Z" fill="#4B4A4A"/>
</svg>
