<svg preserveAspectRatio="xMidYMid meet" overflow="visible" style="display: block;" viewBox="0 0 134.633 31.6784" fill="none" xmlns="http://www.w3.org/2000/svg">
<g id="Vector">
<path fill-rule="evenodd" clip-rule="evenodd" d="M44.3404 31.6767V26.8924H44.9576V31.6767H44.3404Z" fill="#D0C2AB"/>
<path fill-rule="evenodd" clip-rule="evenodd" d="M53.5862 28.0115V31.6784H52.969V26.8941H53.4905L56.4719 30.6342V26.9011H57.0909V31.6784H56.5269L53.588 28.0115H53.5862Z" fill="#D0C2AB"/>
<path fill-rule="evenodd" clip-rule="evenodd" d="M65.0988 31.6767V26.8924H66.789C67.3105 26.8924 67.7468 26.9985 68.0979 27.2126C68.4473 27.4267 68.7098 27.7138 68.8837 28.0758C69.0575 28.4378 69.1444 28.8381 69.1444 29.2784C69.1444 29.764 69.0486 30.1852 68.8553 30.5454C68.6637 30.9057 68.3906 31.1842 68.0376 31.3808C67.6847 31.5792 67.2679 31.6767 66.7872 31.6767H65.097H65.0988ZM68.5183 29.2784C68.5183 28.9199 68.4509 28.5997 68.3161 28.3212C68.1813 28.0428 67.9844 27.8252 67.729 27.6669C67.4719 27.5102 67.1597 27.4319 66.7872 27.4319H65.716V31.1389H66.7872C67.1632 31.1389 67.4789 31.0571 67.7343 30.8935C67.9897 30.7299 68.1849 30.5072 68.3179 30.227C68.4509 29.9468 68.5165 29.63 68.5165 29.2802H68.5183V29.2784Z" fill="#D0C2AB"/>
<path fill-rule="evenodd" clip-rule="evenodd" d="M77.1523 31.6767V26.8924H77.7695V31.6767H77.1523Z" fill="#D0C2AB"/>
<path fill-rule="evenodd" clip-rule="evenodd" d="M88.2994 26.8924L90.2912 31.6767H89.6314L89.0851 30.2757H86.9869L86.4371 31.6767H85.7773L87.7762 26.8924H88.2994ZM88.9024 29.804L88.0405 27.5938L87.1749 29.804H88.9042H88.9024Z" fill="#D0C2AB"/>
<path fill-rule="evenodd" clip-rule="evenodd" d="M39.9915 2.77417C39.0834 1.90224 37.9997 1.22175 36.7387 0.7327C35.4794 0.243653 34.096 0 32.5919 0C31.0879 0 29.7098 0.243653 28.4612 0.7327C27.2108 1.22175 26.1324 1.90224 25.2243 2.77417C24.3163 3.6461 23.6086 4.69032 23.0996 5.90859C22.6668 6.94412 22.4203 8.0684 22.3564 9.27797C20.7956 10.0472 19.2703 11.2307 17.7379 12.8475C14.3734 16.3961 11.7945 16.6746 10.255 16.6746C9.25827 16.6746 8.35018 16.5075 7.53077 16.1716C6.70958 15.8357 6.00191 15.371 5.40598 14.7776C4.81004 14.1841 4.34536 13.4688 4.01369 12.6352C3.68202 11.8015 3.5153 10.8965 3.5153 9.91843C3.5153 8.94033 3.68025 8.01097 4.01369 7.18777C4.34536 6.36457 4.81004 5.65449 5.40598 5.06102C6.00191 4.46756 6.70958 4.00287 7.53077 3.66698C8.35018 3.33109 9.26004 3.16401 10.255 3.16401C11.5835 3.16401 12.7647 3.46684 13.8005 4.06901C14.8363 4.67292 15.6362 5.52049 16.2037 6.61344H20.0135C19.6818 5.59706 19.2082 4.68336 18.5928 3.86712C17.9774 3.05263 17.2502 2.35821 16.4095 1.78215C15.5688 1.20782 14.627 0.765767 13.5823 0.45946C12.5377 0.153153 11.4292 0 10.2568 0C8.75279 0 7.37469 0.243653 6.12607 0.7327C4.87567 1.22175 3.79731 1.90224 2.88922 2.77417C1.98113 3.6461 1.27346 4.69032 0.764428 5.90859C0.253627 7.12512 0 8.46173 0 9.91843C0 11.3751 0.253627 12.7065 0.762654 13.9143C1.26991 15.1222 1.97935 16.1664 2.88744 17.0488C3.79554 17.9311 4.87567 18.6151 6.12429 19.1041C7.37469 19.5932 8.75102 19.8369 10.255 19.8369V19.8421C12.089 19.8421 15.904 19.8421 20.3114 15.1935C21.1982 14.2589 22.0194 13.5558 22.7839 13.0337C22.8761 13.3348 22.9807 13.6272 23.1013 13.9143C23.6086 15.1222 24.318 16.1664 25.2261 17.0488C26.1342 17.9311 27.2143 18.6151 28.463 19.1041C29.7134 19.5932 31.0897 19.8369 32.5937 19.8369C34.0977 19.8369 35.4457 19.588 36.6961 19.0885C37.9465 18.5907 39.0302 17.8998 39.9489 17.0192C40.8676 16.1385 41.5842 15.0891 42.1021 13.8708C42.62 12.6543 42.8789 11.3368 42.8789 9.91843C42.8789 8.50002 42.6253 7.12512 42.1163 5.90859C41.609 4.69206 40.8996 3.64784 39.9915 2.77417ZM38.8475 12.6212C38.5052 13.4462 38.0369 14.1597 37.441 14.7636C36.8451 15.3676 36.1321 15.8375 35.302 16.1734C34.472 16.5092 33.5674 16.6763 32.5919 16.6763C31.6165 16.6763 30.6871 16.5092 29.8677 16.1734C29.0465 15.8375 28.3388 15.3728 27.7429 14.7793C27.1469 14.1858 26.6823 13.4705 26.3506 12.6369C26.2282 12.3323 26.1307 12.0156 26.0526 11.6919C26.81 11.5909 27.4981 11.6431 28.1331 11.7476C30.4636 12.1287 31.5863 13.4584 31.6342 13.5158L31.62 13.4984L34.4064 11.3977C34.2113 11.1489 32.3968 8.94903 28.7113 8.34686C27.7943 8.19719 26.904 8.16064 26.0313 8.23548C26.1112 7.87348 26.2176 7.52366 26.3524 7.18951C26.684 6.36631 27.1487 5.65623 27.7447 5.06277C28.3406 4.4693 29.0483 4.00461 29.8694 3.66872C30.6889 3.33283 31.5987 3.16575 32.5937 3.16575C33.5887 3.16575 34.5021 3.33457 35.334 3.66872C36.164 4.00461 36.877 4.4693 37.4729 5.06277C38.0689 5.65798 38.5318 6.36631 38.8652 7.18951C39.1969 8.01445 39.3636 8.92467 39.3636 9.92017C39.3636 10.9157 39.1916 11.798 38.851 12.623H38.8475V12.6212Z" fill="var(--fill-0, #BC7E5A)"/>
<path fill-rule="evenodd" clip-rule="evenodd" d="M57.3623 15.3676C56.4045 14.7828 55.7217 13.9631 55.312 12.9101C57.1281 12.6804 58.5594 12.0138 59.6041 10.9122C60.6488 9.81052 61.172 8.38689 61.172 6.64303C61.172 5.66494 60.9999 4.78953 60.6594 4.01332C60.3171 3.23711 59.8347 2.57054 59.2086 2.01536C58.5825 1.46018 57.8269 1.03379 56.9384 0.736181C56.0498 0.438576 55.0477 0.290643 53.9356 0.290643H45.9366V19.5532H49.4519V3.44943H53.9339C55.0867 3.44943 55.9948 3.7366 56.6581 4.31266C57.3215 4.88699 57.6549 5.6632 57.6549 6.64129C57.6549 7.61938 57.3126 8.41996 56.6298 8.98384C55.9451 9.54946 55.0477 9.83141 53.9339 9.83141H51.5022V10.5502C51.5022 11.8729 51.7275 13.0859 52.1762 14.1876C52.6249 15.2892 53.2599 16.2395 54.0811 17.0331C54.9023 17.8285 55.8777 18.4463 57.0111 18.8883C58.1444 19.3287 59.3842 19.5497 60.7321 19.5497H61.7573V16.243H60.8776C59.4906 16.243 58.3182 15.9506 57.3623 15.3658V15.3676Z" fill="var(--fill-0, #BC7E5A)"/>
<path fill-rule="evenodd" clip-rule="evenodd" d="M77.4751 13.9439L68.4793 0.287163H64.8168V19.5497H68.3338V5.89293L77.3278 19.5497H80.9904V0.287163H77.4751V13.9439Z" fill="var(--fill-0, #BC7E5A)"/>
<path fill-rule="evenodd" clip-rule="evenodd" d="M84.0498 19.5497H97.8202V16.3874H87.5651V11.356H96.795V8.19371H87.5651V3.44943H97.8202V0.287163H84.0498V19.5497Z" fill="var(--fill-0, #BC7E5A)"/>
<path fill-rule="evenodd" clip-rule="evenodd" d="M112.305 15.3676C111.348 14.7828 110.665 13.9631 110.255 12.9101C112.071 12.6804 113.502 12.0138 114.547 10.9122C115.592 9.81052 116.115 8.38689 116.115 6.64303C116.115 5.66494 115.943 4.78953 115.602 4.01332C115.26 3.23711 114.778 2.57054 114.152 2.01536C113.526 1.46018 112.77 1.03379 111.881 0.736181C110.993 0.438576 109.991 0.290643 108.879 0.290643H100.88V19.5532H104.395V3.44943H108.877C110.03 3.44943 110.938 3.7366 111.601 4.31266C112.264 4.88699 112.598 5.6632 112.598 6.64129C112.598 7.61938 112.256 8.41996 111.573 8.98384C110.888 9.54946 109.991 9.83141 108.877 9.83141H106.445V10.5502C106.445 11.8729 106.671 13.0859 107.119 14.1876C107.568 15.2892 108.203 16.2395 109.024 17.0331C109.845 17.8285 110.821 18.4463 111.954 18.8883C113.087 19.3287 114.327 19.5497 115.675 19.5497H116.7V16.243H115.821C114.434 16.243 113.261 15.9506 112.305 15.3658V15.3676Z" fill="var(--fill-0, #BC7E5A)"/>
<path fill-rule="evenodd" clip-rule="evenodd" d="M134.252 11.859C133.998 11.2359 133.598 10.6894 133.051 10.2195C132.505 9.74961 131.801 9.34758 130.942 9.01169C130.082 8.67579 129.048 8.39385 127.837 8.16412C126.216 7.83867 125.054 7.46449 124.35 7.04332C123.646 6.62215 123.295 6.07567 123.295 5.40388C123.295 4.73209 123.617 4.19258 124.261 3.78011C124.905 3.36764 125.746 3.16227 126.782 3.16227C127.817 3.16227 128.725 3.41637 129.389 3.92456C130.052 4.43275 130.386 5.08887 130.386 5.89467H133.901C133.901 5.03144 133.725 4.24131 133.374 3.52253C133.023 2.80375 132.533 2.1807 131.909 1.65336C131.283 1.12603 130.536 0.718777 129.667 0.431614C128.798 0.144452 127.846 0 126.81 0C125.774 0 124.827 0.144452 123.969 0.431614C123.108 0.718777 122.367 1.1208 121.743 1.63944C121.117 2.15633 120.634 2.77069 120.292 3.47902C119.95 4.18909 119.779 4.97401 119.779 5.83723C119.779 7.35137 120.331 8.54875 121.434 9.43112C122.537 10.3135 124.309 10.9748 126.751 11.4152C128.294 11.6832 129.408 12.0382 130.091 12.4785C130.774 12.9188 131.116 13.4949 131.116 14.2032C131.116 14.9116 130.751 15.5259 130.018 15.9854C129.286 16.4449 128.333 16.6763 127.161 16.6763C126.496 16.6763 125.882 16.5893 125.315 16.417C124.747 16.2447 124.259 16.0098 123.85 15.7122C123.44 15.4145 123.123 15.056 122.897 14.6349C122.672 14.2137 122.56 13.7629 122.56 13.2843H119.045C119.045 14.2816 119.231 15.1866 119.602 16.0011C119.973 16.8156 120.51 17.5065 121.214 18.0704C121.917 18.636 122.771 19.0728 123.777 19.3791C124.783 19.6854 125.911 19.8386 127.161 19.8386C129.524 19.8386 131.361 19.3269 132.67 18.3001C133.979 17.275 134.633 15.8427 134.633 14.0014C134.633 13.1956 134.506 12.482 134.252 11.859Z" fill="var(--fill-0, #BC7E5A)"/>
</g>
</svg>
