<svg width="23" height="23" viewBox="0 0 23 23" fill="none" xmlns="http://www.w3.org/2000/svg">
<path d="M22.3351 21.1097C22.1759 20.3606 21.9552 19.6305 21.6459 18.9306C20.4406 16.203 18.4852 14.222 15.7794 12.9909C15.5146 12.8704 15.2416 12.77 14.9631 12.6638C16.7193 11.4315 17.7832 9.77436 18.008 7.63018C18.233 5.4844 17.5811 3.61307 16.0847 2.06677C13.389 -0.718503 8.91946 -0.683334 6.24316 2.14032C4.9281 3.52779 4.28349 5.20097 4.35484 7.11483C4.44265 9.47416 5.51806 11.3066 7.43702 12.6651C7.4025 12.6782 7.3778 12.6881 7.35288 12.6971C6.5594 12.9833 5.80458 13.3504 5.09686 13.8099C3.00502 15.1681 1.4988 17.0105 0.587111 19.3423C0.336265 19.984 0.159506 20.6477 0.0195628 21.3209C-0.0835655 21.8165 0.231079 22.2776 0.727055 22.3818C1.19788 22.4806 1.67876 22.168 1.77 21.6823C1.82008 21.4159 1.8793 21.1522 1.95065 20.8918C3.33567 15.8354 8.50855 12.8123 13.5625 14.1027C16.7936 14.9277 19.3821 17.4006 20.3685 20.6049C20.4662 20.9219 20.5686 21.2405 20.61 21.568C20.6649 22.0004 21.0024 22.3666 21.4243 22.3939C21.8965 22.4247 22.2925 22.1241 22.3851 21.6745C22.4256 21.4782 22.3748 21.2963 22.3351 21.1092V21.1097ZM11.1979 12.0263C8.38439 12.0231 6.10642 9.73299 6.09887 6.90013C6.09133 4.06889 8.37478 1.76725 11.1958 1.76174C14.0107 1.75645 16.3006 4.05763 16.3008 6.89232C16.301 9.72609 14.0119 12.0293 11.1979 12.0263Z" fill="#4B4A4A"/>
</svg>
