<svg preserveAspectRatio="none" width="100%" height="100%" overflow="visible" style="display: block;" viewBox="0 0 86.9468 40" fill="none" xmlns="http://www.w3.org/2000/svg">
<g id="Vector">
<path fill-rule="evenodd" clip-rule="evenodd" d="M81.0919 5.59249C79.2505 3.83475 77.0531 2.46294 74.4961 1.47706C71.9426 0.491185 69.1374 0 66.0877 0C63.0379 0 60.2435 0.491185 57.7116 1.47706C55.1761 2.46294 52.9895 3.83475 51.1482 5.59249C49.3068 7.35023 47.8718 9.45531 46.8397 11.9112C45.9621 13.9988 45.4622 16.2652 45.3328 18.7036C42.1679 20.2544 39.075 22.6401 35.9677 25.8995C29.1453 33.0532 23.9161 33.6146 20.7945 33.6146C18.7733 33.6146 16.9319 33.2778 15.2704 32.6007C13.6052 31.9235 12.1703 30.9868 10.9619 29.7904C9.75347 28.594 8.81121 27.152 8.13868 25.4714C7.46615 23.7909 7.12809 21.9665 7.12809 19.9947C7.12809 18.023 7.46255 16.1495 8.13868 14.49C8.81121 12.8305 9.75347 11.399 10.9619 10.2026C12.1703 9.00623 13.6052 8.06947 15.2704 7.39233C16.9319 6.7152 18.7769 6.37839 20.7945 6.37839C23.4882 6.37839 25.8834 6.98886 27.9837 8.20279C30.084 9.42023 31.706 11.1288 32.8568 13.3322H40.5819C39.9094 11.2832 38.9491 9.44128 37.7012 7.79581C36.4532 6.15385 34.9787 4.75397 33.274 3.59267C31.5693 2.43487 29.6596 1.54372 27.5413 0.926235C25.423 0.308745 23.1753 0 20.798 0C17.7483 0 14.9539 0.491185 12.422 1.47706C9.88653 2.46294 7.69992 3.83475 5.85855 5.59249C4.01719 7.35023 2.58222 9.45531 1.55005 11.9112C0.514287 14.3637 0 17.0582 0 19.9947C0 22.9313 0.514287 25.6153 1.54646 28.0502C2.57503 30.485 4.01359 32.5901 5.85496 34.3689C7.69632 36.1477 9.88653 37.5265 12.4184 38.5124C14.9539 39.4983 17.7447 39.9895 20.7945 39.9895V40C24.5131 40 32.249 40 41.1861 30.6289C42.9843 28.7448 44.6494 27.3274 46.1995 26.2749C46.3865 26.8819 46.5987 27.4713 46.8433 28.0502C47.8718 30.485 49.3104 32.5901 51.1518 34.3689C52.9931 36.1477 55.1833 37.5265 57.7152 38.5124C60.2507 39.4983 63.0415 39.9895 66.0913 39.9895C69.141 39.9895 71.8743 39.4878 74.4098 38.4808C76.9452 37.4774 79.1426 36.0846 81.0056 34.3093C82.8685 32.534 84.3215 30.4184 85.3716 27.9625C86.4218 25.51 86.9468 22.8541 86.9468 19.9947C86.9468 17.1353 86.4326 14.3637 85.4004 11.9112C84.3718 9.45882 82.9332 7.35374 81.0919 5.59249ZM78.7722 25.4434C78.0781 27.1064 77.1286 28.5449 75.9202 29.7623C74.7118 30.9797 73.2661 31.927 71.583 32.6042C69.8998 33.2813 68.0657 33.6181 66.0877 33.6181C64.1096 33.6181 62.2251 33.2813 60.5636 32.6042C58.8984 31.927 57.4635 30.9903 56.2551 29.7939C55.0467 28.5975 54.1044 27.1555 53.4319 25.475C53.1837 24.861 52.9859 24.2224 52.8277 23.5699C54.3634 23.3664 55.7588 23.4716 57.0463 23.6821C61.772 24.4505 64.0485 27.131 64.1456 27.2467L64.1168 27.2116L69.7668 22.9769C69.3712 22.4752 65.6921 18.0405 58.2187 16.8266C56.3594 16.5249 54.554 16.4512 52.7845 16.6021C52.9464 15.8723 53.1622 15.1671 53.4355 14.4935C54.108 12.834 55.0503 11.4025 56.2587 10.2061C57.4671 9.00974 58.902 8.07298 60.5672 7.39584C62.2287 6.71871 64.0737 6.3819 66.0913 6.3819C68.1088 6.3819 69.961 6.72222 71.6477 7.39584C73.3308 8.07298 74.7766 9.00974 75.985 10.2061C77.1934 11.406 78.132 12.834 78.8082 14.4935C79.4807 16.1565 79.8188 17.9914 79.8188 19.9982C79.8188 22.0051 79.4699 23.7839 78.7794 25.4469H78.7722V25.4434Z" fill="var(--fill-0, #BC7E5A)"/>
</g>
</svg>
