<svg preserveAspectRatio="none" width="100%" height="100%" overflow="visible" style="display: block;" viewBox="0 0 1597 240" fill="none" xmlns="http://www.w3.org/2000/svg">
<g id="Layer 2">
<path id="Vector" fill-rule="evenodd" clip-rule="evenodd" d="M474.373 33.5549C463.601 23.0085 450.747 14.7777 435.788 8.86238C420.851 2.94711 404.441 0 386.601 0C368.76 0 352.413 2.94711 337.602 8.86238C322.77 14.7777 309.979 23.0085 299.207 33.5549C288.436 44.1014 280.041 56.7319 274.003 71.4674C268.87 83.9926 265.946 97.5914 265.188 112.222C246.675 121.526 228.582 135.841 210.405 155.397C170.495 198.319 139.905 201.688 121.644 201.688C109.82 201.688 99.0485 199.667 89.3288 195.604C79.5881 191.541 71.1938 185.921 64.1249 178.742C57.056 171.564 51.544 162.912 47.6098 152.829C43.6756 142.745 41.698 131.799 41.698 119.968C41.698 108.138 43.6546 96.8968 47.6098 86.9397C51.544 76.9827 57.056 68.394 64.1249 61.2157C71.1938 54.0374 79.5881 48.4168 89.3288 44.354C99.0485 40.2912 109.841 38.2703 121.644 38.2703C137.401 38.2703 151.413 41.9332 163.699 49.2167C175.986 56.5214 185.474 66.7731 192.206 79.993H237.397C233.463 67.6993 227.845 56.6477 220.545 46.7748C213.245 36.9231 204.619 28.5238 194.647 21.556C184.675 14.6092 173.503 9.26235 161.112 5.55741C148.72 1.85247 135.571 0 121.665 0C103.824 0 87.4775 2.94711 72.6665 8.86238C57.8344 14.7777 45.0431 23.0085 34.2715 33.5549C23.4998 44.1014 15.1055 56.7319 9.06753 71.4674C3.00848 86.1819 0 102.349 0 119.968C0 137.588 3.00848 153.692 9.04649 168.301C15.0635 182.91 23.4788 195.541 34.2504 206.213C45.0221 216.886 57.8344 225.159 72.6454 231.074C87.4775 236.99 103.803 239.937 121.644 239.937V240C143.397 240 188.651 240 240.931 183.773C251.45 172.469 261.191 163.965 270.259 157.649C271.353 161.291 272.594 164.828 274.024 168.301C280.041 182.91 288.457 195.541 299.228 206.213C310 216.886 322.812 225.159 337.623 231.074C352.455 236.99 368.781 239.937 386.622 239.937C404.462 239.937 420.451 236.927 435.283 230.885C450.115 224.864 462.97 216.507 473.868 205.856C484.766 195.204 493.265 182.51 499.408 167.775C505.552 153.06 508.623 137.125 508.623 119.968C508.623 102.812 505.615 86.1819 499.577 71.4674C493.56 56.7529 485.144 44.1224 474.373 33.5549ZM460.803 152.66C456.743 162.638 451.188 171.269 444.12 178.574C437.051 185.878 428.593 191.562 418.747 195.625C408.901 199.688 398.172 201.709 386.601 201.709C375.03 201.709 364.005 199.688 354.286 195.625C344.545 191.562 336.151 185.942 329.082 178.763C322.013 171.585 316.501 162.933 312.567 152.85C311.115 149.166 309.958 145.335 309.032 141.419C318.016 140.198 326.179 140.83 333.71 142.093C361.355 146.703 374.672 162.786 375.24 163.48L375.072 163.27L408.123 137.862C405.809 134.851 384.286 108.243 340.569 100.96C329.692 99.1492 319.131 98.7071 308.78 99.6123C309.727 95.2337 310.989 91.0025 312.588 86.9608C316.522 77.0038 322.034 68.4151 329.103 61.2367C336.172 54.0584 344.566 48.4379 354.307 44.3751C364.027 40.3123 374.819 38.2914 386.622 38.2914C398.424 38.2914 409.259 40.3333 419.126 44.3751C428.972 48.4379 437.429 54.0584 444.498 61.2367C451.567 68.4361 457.058 77.0038 461.013 86.9608C464.948 96.9389 466.925 107.948 466.925 119.989C466.925 132.031 464.884 142.703 460.845 152.681H460.803V152.66Z" fill="var(--fill-0, #F3EDE3)"/>
<path id="Vector_2" fill-rule="evenodd" clip-rule="evenodd" d="M680.422 185.878C669.062 178.805 660.962 168.89 656.102 156.155C677.645 153.376 694.623 145.314 707.015 131.988C719.406 118.663 725.613 101.444 725.613 80.3508C725.613 68.5203 723.572 57.9318 719.533 48.5431C715.472 39.1545 709.75 31.092 702.323 24.3768C694.897 17.6616 685.934 12.5042 675.394 8.90448C664.854 5.3048 652.967 3.51548 639.776 3.51548H544.893V236.506H586.591V41.7227H639.755C653.43 41.7227 664.202 45.196 672.07 52.1638C679.938 59.1106 683.894 68.4993 683.894 80.3298C683.894 92.1603 679.833 101.844 671.733 108.664C663.613 115.506 652.967 118.916 639.755 118.916H610.912V127.61C610.912 143.608 613.583 158.281 618.906 171.606C624.229 184.931 631.761 196.425 641.501 206.024C651.242 215.644 662.813 223.117 676.257 228.464C689.7 233.79 704.406 236.463 720.395 236.463H732.555V196.467H722.12C705.668 196.467 691.762 192.93 680.422 185.857V185.878Z" fill="var(--fill-0, #F3EDE3)"/>
<path id="Vector_3" fill-rule="evenodd" clip-rule="evenodd" d="M918.997 168.659L812.291 3.47338H768.846V236.463H810.565V71.278L917.251 236.463H960.695V3.47338H918.997V168.659Z" fill="var(--fill-0, #F3EDE3)"/>
<path id="Vector_4" fill-rule="evenodd" clip-rule="evenodd" d="M996.986 236.463H1160.33V198.214H1038.68V137.356H1148.17V99.1071H1038.68V41.7227H1160.33V3.47338H996.986V236.463Z" fill="var(--fill-0, #F3EDE3)"/>
<path id="Vector_5" fill-rule="evenodd" clip-rule="evenodd" d="M1332.15 185.878C1320.79 178.805 1312.69 168.89 1307.83 156.155C1329.37 153.376 1346.35 145.314 1358.74 131.988C1371.13 118.663 1377.34 101.444 1377.34 80.3508C1377.34 68.5203 1375.3 57.9318 1371.26 48.5431C1367.2 39.1545 1361.48 31.092 1354.05 24.3768C1346.62 17.6616 1337.66 12.5042 1327.12 8.90448C1316.58 5.3048 1304.69 3.51548 1291.5 3.51548H1196.62V236.506H1238.32V41.7227H1291.48C1305.16 41.7227 1315.93 45.196 1323.8 52.1638C1331.66 59.1106 1335.62 68.4993 1335.62 80.3298C1335.62 92.1603 1331.56 101.844 1323.46 108.664C1315.34 115.506 1304.69 118.916 1291.48 118.916H1262.64V127.61C1262.64 143.608 1265.31 158.281 1270.63 171.606C1275.95 184.931 1283.49 196.425 1293.23 206.024C1302.97 215.644 1314.54 223.117 1327.98 228.464C1341.43 233.79 1356.13 236.463 1372.12 236.463H1384.28V196.467H1373.85C1357.39 196.467 1343.49 192.93 1332.15 185.857V185.878Z" fill="var(--fill-0, #F3EDE3)"/>
<path id="Vector_6" fill-rule="evenodd" clip-rule="evenodd" d="M1592.48 143.44C1589.47 135.904 1584.71 129.294 1578.23 123.61C1571.75 117.926 1563.4 113.064 1553.22 109.001C1543.02 104.938 1530.75 101.528 1516.38 98.7492C1497.15 94.8127 1483.37 90.2868 1475.02 85.1925C1466.67 80.0982 1462.5 73.4883 1462.5 65.3627C1462.5 57.2371 1466.33 50.7113 1473.97 45.7223C1481.6 40.7333 1491.58 38.2493 1503.86 38.2493C1516.15 38.2493 1526.92 41.3227 1534.79 47.4695C1542.66 53.6163 1546.61 61.5525 1546.61 71.299H1588.31C1588.31 60.8578 1586.23 51.3008 1582.06 42.6068C1577.9 33.9128 1572.09 26.3766 1564.68 19.9982C1557.26 13.6199 1548.4 8.69397 1538.09 5.22059C1527.78 1.74722 1516.49 0 1504.2 0C1491.91 0 1480.68 1.74722 1470.5 5.22059C1460.29 8.69397 1451.5 13.5567 1444.09 19.8298C1436.67 26.0819 1430.94 33.5128 1426.88 42.0805C1422.82 50.6692 1420.8 60.1631 1420.8 70.6043C1420.8 88.9185 1427.35 103.401 1440.43 114.074C1453.52 124.747 1474.54 132.746 1503.51 138.072C1521.81 141.314 1535.02 145.608 1543.12 150.934C1551.22 156.26 1555.28 163.228 1555.28 171.795C1555.28 180.363 1550.95 187.794 1542.26 193.351C1533.57 198.909 1522.27 201.709 1508.37 201.709C1500.48 201.709 1493.2 200.656 1486.46 198.572C1479.73 196.488 1473.95 193.646 1469.09 190.046C1464.23 186.447 1460.46 182.11 1457.79 177.016C1455.12 171.922 1453.79 166.47 1453.79 160.681H1412.09C1412.09 172.743 1414.3 183.689 1418.7 193.541C1423.1 203.393 1429.47 211.75 1437.82 218.57C1446.15 225.412 1456.3 230.696 1468.22 234.4C1480.15 238.105 1493.53 239.958 1508.37 239.958C1536.39 239.958 1558.18 233.769 1573.71 221.349C1589.24 208.95 1597 191.625 1597 169.354C1597 159.607 1595.49 150.976 1592.48 143.44Z" fill="var(--fill-0, #F3EDE3)"/>
</g>
</svg>
